STARTFONT 2.1
COMMENT $XFree86$
COMMENT ISO10646-1 extension by Markus Kuhn <mkuhn@acm.org>, 2001-03-20
COMMENT  (c) Copyright Bigelow & Holmes 1986, 1985. Lucida is a registered
COMMENT  trademark of Bigelow & Holmes. See LEGAL NOTICE file for terms 
COMMENT  of the license. 
FONT -B&H-LucidaBright-DemiBold-I-Normal--18-180-75-75-P-107-ISO10646-1
SIZE 18 72 72
FONTBOUNDINGBOX 34 29 -11 -8
STARTPROPERTIES 22
COMMENT Begin LogicalFontDescription
FONTNAME_REGISTRY ""
FOUNDRY "B&H"
FAMILY_NAME "LucidaBright"
WEIGHT_NAME "DemiBold"
SLANT "I"
SETWIDTH_NAME "Normal"
ADD_STYLE_NAME ""
PIXEL_SIZE 18
POINT_SIZE 180
RESOLUTION_X 75
RESOLUTION_Y 75
SPACING "P"
AVERAGE_WIDTH 107
CHARSET_REGISTRY "ISO10646"
CHARSET_ENCODING "1"
COMMENT END LogicalFontDescription
FONT_ASCENT 16
FONT_DESCENT 4
DEFAULT_CHAR 0
COPYRIGHT "Copyright Bigelow & Holmes 1986, 1985."
FACE_NAME "Lucida Bright Demibold Italic"
X_HEIGHT 9
CAP_HEIGHT 13
ENDPROPERTIES
CHARS 723
STARTCHAR char0
ENCODING 0
SWIDTH 827 0
DWIDTH 15 0
BBX 15 13 1 0
BITMAP
AAAA
0000
8002
0000
8002
0000
8002
0000
8002
0000
8002
0000
AAAA
ENDCHAR
STARTCHAR space
ENCODING 32
SWIDTH 333 0
DWIDTH 6 0
BBX 1 1 0 0
BITMAP
00
ENDCHAR
STARTCHAR exclam
ENCODING 33
SWIDTH 265 0
DWIDTH 5 0
BBX 5 13 1 0
BITMAP
38
38
38
30
30
30
20
60
60
00
00
E0
E0
ENDCHAR
STARTCHAR quotedbl
ENCODING 34
SWIDTH 451 0
DWIDTH 8 0
BBX 7 5 3 8
BITMAP
EE
CC
CC
4C
44
ENDCHAR
STARTCHAR numbersign
ENCODING 35
SWIDTH 636 0
DWIDTH 12 0
BBX 11 13 2 0
BITMAP
0220
0240
0440
0480
7FE0
0900
1100
1200
FFC0
2400
4400
4800
C800
ENDCHAR
STARTCHAR dollar
ENCODING 36
SWIDTH 636 0
DWIDTH 11 0
BBX 10 15 2 -1
BITMAP
0200
0FC0
1AC0
32C0
3400
3C00
1C00
0E00
0F00
0B80
0B80
CB00
CF00
FC00
1000
ENDCHAR
STARTCHAR percent
ENCODING 37
SWIDTH 772 0
DWIDTH 14 0
BBX 12 13 2 0
BITMAP
3830
6C60
CC40
CC80
CD80
7300
06E0
0DB0
0B30
1330
3330
6360
C1C0
ENDCHAR
STARTCHAR ampersand
ENCODING 38
SWIDTH 773 0
DWIDTH 14 0
BBX 13 13 2 0
BITMAP
0780
0CC0
0CC0
0CC0
0D80
0E00
3678
6630
E720
E340
E380
61C0
3EE0
ENDCHAR
STARTCHAR quotesingle
ENCODING 39
SWIDTH 247 0
DWIDTH 4 0
BBX 3 5 3 8
BITMAP
E0
E0
C0
40
40
ENDCHAR
STARTCHAR parenleft
ENCODING 40
SWIDTH 336 0
DWIDTH 6 0
BBX 7 16 2 -3
BITMAP
06
0C
18
30
30
60
60
E0
E0
C0
C0
C0
C0
60
20
20
ENDCHAR
STARTCHAR parenright
ENCODING 41
SWIDTH 336 0
DWIDTH 6 0
BBX 7 16 0 -3
BITMAP
10
08
0C
0C
0C
0E
0C
0C
0C
0C
18
18
30
20
40
80
ENDCHAR
STARTCHAR asterisk
ENCODING 42
SWIDTH 434 0
DWIDTH 8 0
BBX 7 7 3 6
BITMAP
18
5A
D6
6C
38
EC
48
ENDCHAR
STARTCHAR plus
ENCODING 43
SWIDTH 636 0
DWIDTH 11 0
BBX 11 11 1 0
BITMAP
0200
0200
0600
0600
0400
FFE0
0400
0C00
0C00
0800
0800
ENDCHAR
STARTCHAR comma
ENCODING 44
SWIDTH 265 0
DWIDTH 5 0
BBX 4 6 0 -3
BITMAP
70
70
70
20
60
C0
ENDCHAR
STARTCHAR hyphen
ENCODING 45
SWIDTH 289 0
DWIDTH 5 0
BBX 4 1 2 5
BITMAP
F0
ENDCHAR
STARTCHAR period
ENCODING 46
SWIDTH 265 0
DWIDTH 5 0
BBX 3 3 1 0
BITMAP
E0
E0
E0
ENDCHAR
STARTCHAR slash
ENCODING 47
SWIDTH 515 0
DWIDTH 9 0
BBX 12 16 0 -3
BITMAP
0030
0020
0040
00C0
0080
0100
0300
0200
0400
0C00
0800
1000
3000
2000
4000
C000
ENDCHAR
STARTCHAR zero
ENCODING 48
SWIDTH 623 0
DWIDTH 11 0
BBX 11 13 2 0
BITMAP
0F80
19C0
30C0
70C0
60E0
E0C0
E0C0
E1C0
E1C0
E180
E300
6700
3C00
ENDCHAR
STARTCHAR one
ENCODING 49
SWIDTH 636 0
DWIDTH 11 0
BBX 7 13 3 0
BITMAP
3E
0E
0E
0C
0C
1C
1C
1C
18
18
18
38
FE
ENDCHAR
STARTCHAR two
ENCODING 50
SWIDTH 636 0
DWIDTH 11 0
BBX 11 13 1 0
BITMAP
0F80
11E0
30E0
00E0
00E0
01C0
0300
0C00
1000
2000
6000
FF80
FF80
ENDCHAR
STARTCHAR three
ENCODING 51
SWIDTH 636 0
DWIDTH 11 0
BBX 10 13 2 0
BITMAP
1F80
11C0
31C0
01C0
0180
0300
3F00
0380
0380
0380
C380
C700
FC00
ENDCHAR
STARTCHAR four
ENCODING 52
SWIDTH 636 0
DWIDTH 11 0
BBX 10 13 1 0
BITMAP
01C0
03C0
0780
0D80
1980
3180
6380
C300
FFC0
0300
0300
0700
0F80
ENDCHAR
STARTCHAR five
ENCODING 53
SWIDTH 636 0
DWIDTH 11 0
BBX 11 13 2 0
BITMAP
1FE0
1FC0
2000
2000
2000
3C00
0700
0380
0380
0380
C300
C700
FC00
ENDCHAR
STARTCHAR six
ENCODING 54
SWIDTH 636 0
DWIDTH 11 0
BBX 11 13 2 0
BITMAP
07C0
1C60
3840
7000
7000
EF00
F380
E1C0
E1C0
E180
E180
6300
3E00
ENDCHAR
STARTCHAR seven
ENCODING 55
SWIDTH 636 0
DWIDTH 11 0
BBX 10 13 3 0
BITMAP
7FC0
7FC0
0080
0100
0200
0600
0C00
1800
3000
7000
6000
E000
E000
ENDCHAR
STARTCHAR eight
ENCODING 56
SWIDTH 636 0
DWIDTH 11 0
BBX 11 13 2 0
BITMAP
0F80
18C0
38E0
38C0
38C0
1F00
1F80
63C0
E1C0
E1C0
E180
F100
3E00
ENDCHAR
STARTCHAR nine
ENCODING 57
SWIDTH 636 0
DWIDTH 11 0
BBX 11 13 1 0
BITMAP
0F00
19C0
30C0
70E0
60E0
70E0
71C0
3FC0
01C0
0180
C300
C600
FC00
ENDCHAR
STARTCHAR colon
ENCODING 58
SWIDTH 265 0
DWIDTH 5 0
BBX 5 9 1 0
BITMAP
38
38
38
00
00
00
E0
E0
E0
ENDCHAR
STARTCHAR semicolon
ENCODING 59
SWIDTH 265 0
DWIDTH 5 0
BBX 5 12 0 -3
BITMAP
38
38
38
00
00
00
70
60
60
60
60
C0
ENDCHAR
STARTCHAR less
ENCODING 60
SWIDTH 636 0
DWIDTH 11 0
BBX 11 11 2 0
BITMAP
0020
00E0
0380
0E00
3800
E000
3000
1C00
0700
0180
0080
ENDCHAR
STARTCHAR equal
ENCODING 61
SWIDTH 636 0
DWIDTH 11 0
BBX 11 4 1 3
BITMAP
7FE0
0000
0000
FFC0
ENDCHAR
STARTCHAR greater
ENCODING 62
SWIDTH 636 0
DWIDTH 11 0
BBX 11 11 1 0
BITMAP
2000
3000
1C00
0700
0180
00E0
0380
0E00
3800
E000
8000
ENDCHAR
STARTCHAR question
ENCODING 63
SWIDTH 493 0
DWIDTH 9 0
BBX 8 13 2 0
BITMAP
7E
47
C7
07
06
0C
18
30
70
00
00
E0
E0
ENDCHAR
STARTCHAR at
ENCODING 64
SWIDTH 861 0
DWIDTH 16 0
BBX 13 13 2 0
BITMAP
07C0
1830
2018
4708
4CC8
8888
9988
9188
9A90
9DE0
4000
2080
1F00
ENDCHAR
STARTCHAR A
ENCODING 65
SWIDTH 765 0
DWIDTH 14 0
BBX 14 13 0 0
BITMAP
00C0
00E0
01E0
01E0
0260
0460
0470
0870
1FF0
1030
2038
6038
F07C
ENDCHAR
STARTCHAR B
ENCODING 66
SWIDTH 651 0
DWIDTH 12 0
BBX 12 13 1 0
BITMAP
3FE0
0C70
0C70
1C70
1C60
1CC0
1F80
18E0
3860
3860
38E0
31C0
FF80
ENDCHAR
STARTCHAR C
ENCODING 67
SWIDTH 740 0
DWIDTH 13 0
BBX 13 13 2 0
BITMAP
03F8
0C18
1818
3010
7000
6000
E000
E000
E000
E000
7000
7860
1F80
ENDCHAR
STARTCHAR D
ENCODING 68
SWIDTH 822 0
DWIDTH 15 0
BBX 15 13 0 0
BITMAP
3FF8
0E1C
0C0E
1C0E
1C0E
1C0E
1C0E
180E
381C
381C
3838
7870
FFC0
ENDCHAR
STARTCHAR E
ENCODING 69
SWIDTH 630 0
DWIDTH 11 0
BBX 12 13 1 0
BITMAP
3FF0
0C30
1C00
1C00
1C00
1C40
1F80
3880
3800
3800
3840
70C0
FFC0
ENDCHAR
STARTCHAR F
ENCODING 70
SWIDTH 602 0
DWIDTH 11 0
BBX 12 13 1 0
BITMAP
3FF0
0C30
1C30
1C00
1C00
1C40
1F80
3880
3800
3800
3800
7000
FC00
ENDCHAR
STARTCHAR G
ENCODING 71
SWIDTH 780 0
DWIDTH 14 0
BBX 13 13 2 0
BITMAP
03F8
0E18
1818
3000
7000
6000
E000
E1F8
E070
E0E0
60E0
70E0
1F80
ENDCHAR
STARTCHAR H
ENCODING 72
SWIDTH 827 0
DWIDTH 15 0
BBX 16 13 1 0
BITMAP
3F3F
0E0E
1C1C
1C1C
1C1C
1C1C
1FF8
3838
3838
3838
3838
7070
FCFC
ENDCHAR
STARTCHAR I
ENCODING 73
SWIDTH 372 0
DWIDTH 7 0
BBX 8 13 1 0
BITMAP
3F
0E
1C
1C
1C
1C
18
38
38
38
38
70
FC
ENDCHAR
STARTCHAR J
ENCODING 74
SWIDTH 478 0
DWIDTH 9 0
BBX 11 16 0 -3
BITMAP
07E0
03C0
0380
0380
0380
0380
0300
0700
0700
0700
0700
0600
0E00
CE00
CC00
F000
ENDCHAR
STARTCHAR K
ENCODING 75
SWIDTH 746 0
DWIDTH 13 0
BBX 14 13 1 0
BITMAP
3F3C
0E10
0C20
1C40
1D80
1A00
1F00
1B80
3BC0
39C0
30E0
70F0
F9F8
ENDCHAR
STARTCHAR L
ENCODING 76
SWIDTH 611 0
DWIDTH 11 0
BBX 11 13 0 0
BITMAP
1F00
0E00
0C00
1C00
1C00
1C00
1C00
1800
3800
3800
3820
3860
FFC0
ENDCHAR
STARTCHAR M
ENCODING 77
SWIDTH 926 0
DWIDTH 17 0
BBX 18 13 1 0
BITMAP
3C03C0
0E0780
0E0700
1E0F00
161700
131600
132600
134600
334E00
218E00
210C00
600C00
F03F00
ENDCHAR
STARTCHAR N
ENCODING 78
SWIDTH 797 0
DWIDTH 14 0
BBX 16 13 0 0
BITMAP
3C0F
0E06
0E04
1F04
1B0C
1388
11C8
11C8
30E8
20F8
2070
6030
F030
ENDCHAR
STARTCHAR O
ENCODING 79
SWIDTH 831 0
DWIDTH 15 0
BBX 14 13 2 0
BITMAP
03E0
0C30
1818
301C
701C
601C
E018
E038
E038
E070
E060
71C0
1F00
ENDCHAR
STARTCHAR P
ENCODING 80
SWIDTH 628 0
DWIDTH 11 0
BBX 12 13 1 0
BITMAP
3FE0
0C70
1C70
1C70
1C70
1860
18C0
3F80
3800
3800
3000
7000
FC00
ENDCHAR
STARTCHAR Q
ENCODING 81
SWIDTH 835 0
DWIDTH 15 0
BBX 15 16 2 -3
BITMAP
03E0
0C30
1818
3018
701C
601C
E018
E038
E038
E070
E070
71E0
1F80
0100
00C0
003E
ENDCHAR
STARTCHAR R
ENCODING 82
SWIDTH 711 0
DWIDTH 13 0
BBX 12 13 1 0
BITMAP
3FE0
0C70
1C70
1C70
1C60
18E0
1F80
3B80
3980
39C0
30C0
70E0
F8F0
ENDCHAR
STARTCHAR S
ENCODING 83
SWIDTH 587 0
DWIDTH 11 0
BBX 10 13 2 0
BITMAP
0FC0
18C0
38C0
3000
3800
3C00
1F00
0700
0380
0380
C380
C700
FC00
ENDCHAR
STARTCHAR T
ENCODING 84
SWIDTH 716 0
DWIDTH 13 0
BBX 13 13 2 0
BITMAP
FFF8
C718
8718
0600
0E00
0E00
0E00
0E00
0C00
1C00
1C00
1C00
7E00
ENDCHAR
STARTCHAR U
ENCODING 85
SWIDTH 775 0
DWIDTH 14 0
BBX 13 13 3 0
BITMAP
FC78
7030
7020
7020
7020
6020
E020
E040
E040
E040
E080
7180
3E00
ENDCHAR
STARTCHAR V
ENCODING 86
SWIDTH 741 0
DWIDTH 13 0
BBX 14 13 2 0
BITMAP
F83C
7018
7010
3020
3820
3840
3880
1880
1D00
1F00
1E00
1C00
0C00
ENDCHAR
STARTCHAR W
ENCODING 87
SWIDTH 922 0
DWIDTH 17 0
BBX 17 13 2 0
BITMAP
F8C380
70C100
71C200
71C200
72C400
72C400
74C800
74D800
78D000
38F000
30E000
30C000
20C000
ENDCHAR
STARTCHAR X
ENCODING 88
SWIDTH 672 0
DWIDTH 12 0
BBX 14 13 0 0
BITMAP
1F1C
0E18
0E30
0720
0740
0380
0380
0780
0DC0
19C0
30E0
60E0
E1F0
ENDCHAR
STARTCHAR Y
ENCODING 89
SWIDTH 669 0
DWIDTH 12 0
BBX 12 13 3 0
BITMAP
F870
7060
7040
3880
3900
1A00
1E00
1C00
1C00
1C00
1800
3800
7E00
ENDCHAR
STARTCHAR Z
ENCODING 90
SWIDTH 684 0
DWIDTH 12 0
BBX 12 13 1 0
BITMAP
1FF0
10E0
11E0
01C0
0380
0700
0F00
0E00
1C00
3800
7040
70C0
FFC0
ENDCHAR
STARTCHAR bracketleft
ENCODING 91
SWIDTH 336 0
DWIDTH 6 0
BBX 7 16 1 -3
BITMAP
1E
18
18
38
30
30
30
30
70
60
60
60
60
E0
C0
F0
ENDCHAR
STARTCHAR backslash
ENCODING 92
SWIDTH 515 0
DWIDTH 9 0
BBX 5 16 3 -3
BITMAP
80
80
40
40
40
40
20
20
20
20
10
10
10
10
08
08
ENDCHAR
STARTCHAR bracketright
ENCODING 93
SWIDTH 336 0
DWIDTH 6 0
BBX 7 16 0 -3
BITMAP
1E
06
0E
0C
0C
0C
0C
1C
18
18
18
18
38
30
30
F0
ENDCHAR
STARTCHAR asciicircum
ENCODING 94
SWIDTH 636 0
DWIDTH 11 0
BBX 10 11 1 2
BITMAP
0200
0200
0700
0700
0D00
1980
1180
3080
2080
40C0
C0C0
ENDCHAR
STARTCHAR underscore
ENCODING 95
SWIDTH 500 0
DWIDTH 9 0
BBX 8 1 0 -1
BITMAP
FF
ENDCHAR
STARTCHAR grave
ENCODING 96
SWIDTH 599 0
DWIDTH 11 0
BBX 4 3 6 10
BITMAP
E0
60
30
ENDCHAR
STARTCHAR a
ENCODING 97
SWIDTH 634 0
DWIDTH 11 0
BBX 11 9 1 0
BITMAP
07E0
18E0
30C0
61C0
61C0
E3C0
E5C0
F980
73E0
ENDCHAR
STARTCHAR b
ENCODING 98
SWIDTH 633 0
DWIDTH 11 0
BBX 11 13 1 0
BITMAP
7C00
1800
3800
3800
39C0
33E0
74E0
78E0
70C0
60C0
6180
E300
FC00
ENDCHAR
STARTCHAR c
ENCODING 99
SWIDTH 524 0
DWIDTH 9 0
BBX 9 9 1 0
BITMAP
0F80
3980
7180
6000
E000
E000
E000
E100
7E00
ENDCHAR
STARTCHAR d
ENCODING 100
SWIDTH 634 0
DWIDTH 11 0
BBX 11 13 1 0
BITMAP
01E0
00E0
00C0
00C0
0FC0
11C0
31C0
6180
6380
E580
EF80
FB80
73C0
ENDCHAR
STARTCHAR e
ENCODING 101
SWIDTH 548 0
DWIDTH 10 0
BBX 9 9 1 0
BITMAP
0F00
3380
6380
6300
E700
FC00
E000
E180
7E00
ENDCHAR
STARTCHAR f
ENCODING 102
SWIDTH 415 0
DWIDTH 7 0
BBX 10 17 1 -3
BITMAP
07C0
0CC0
0CC0
1C00
1800
7F00
3800
3800
3800
3000
7000
7000
7000
6000
6000
E000
E000
ENDCHAR
STARTCHAR g
ENCODING 103
SWIDTH 628 0
DWIDTH 11 0
BBX 11 12 1 -3
BITMAP
07E0
18E0
30E0
30C0
71C0
63C0
67C0
7D80
7380
8380
C300
7C00
ENDCHAR
STARTCHAR h
ENCODING 104
SWIDTH 656 0
DWIDTH 12 0
BBX 10 13 2 0
BITMAP
7800
3800
3800
3800
3180
37C0
75C0
79C0
7180
6180
6380
E380
E3C0
ENDCHAR
STARTCHAR i
ENCODING 105
SWIDTH 319 0
DWIDTH 6 0
BBX 5 13 2 0
BITMAP
38
38
00
00
F0
70
70
70
60
60
E0
E0
F0
ENDCHAR
STARTCHAR j
ENCODING 106
SWIDTH 381 0
DWIDTH 7 0
BBX 10 17 -1 -4
BITMAP
01C0
01C0
0000
0000
0780
0380
0380
0300
0700
0700
0700
0700
0600
0E00
CC00
CC00
F000
ENDCHAR
STARTCHAR k
ENCODING 107
SWIDTH 626 0
DWIDTH 11 0
BBX 10 13 2 0
BITMAP
7800
3800
3800
3800
31C0
31C0
7380
7E00
7C00
6E00
6700
E380
E3C0
ENDCHAR
STARTCHAR l
ENCODING 108
SWIDTH 319 0
DWIDTH 6 0
BBX 5 13 2 0
BITMAP
78
38
38
30
30
70
70
70
60
60
E0
E0
F0
ENDCHAR
STARTCHAR m
ENCODING 109
SWIDTH 969 0
DWIDTH 17 0
BBX 16 9 2 0
BITMAP
F9CE
37DF
75F7
79E7
71C6
6186
618E
E38E
E38F
ENDCHAR
STARTCHAR n
ENCODING 110
SWIDTH 656 0
DWIDTH 12 0
BBX 10 9 2 0
BITMAP
F180
37C0
7DC0
79C0
7180
6180
6380
E380
E3C0
ENDCHAR
STARTCHAR o
ENCODING 111
SWIDTH 599 0
DWIDTH 11 0
BBX 10 9 1 0
BITMAP
0F80
39C0
71C0
61C0
E1C0
E180
E380
E300
7C00
ENDCHAR
STARTCHAR p
ENCODING 112
SWIDTH 639 0
DWIDTH 11 0
BBX 11 12 1 -3
BITMAP
79C0
3BE0
3EE0
3CE0
38E0
70C0
7180
7100
7E00
E000
E000
E000
ENDCHAR
STARTCHAR q
ENCODING 113
SWIDTH 630 0
DWIDTH 11 0
BBX 11 12 1 -3
BITMAP
07E0
18E0
30C0
61C0
61C0
E3C0
E5C0
F980
7380
0380
0380
0300
ENDCHAR
STARTCHAR r
ENCODING 114
SWIDTH 496 0
DWIDTH 9 0
BBX 9 9 2 0
BITMAP
F180
3700
7C00
7800
7000
6000
6000
E000
E000
ENDCHAR
STARTCHAR s
ENCODING 115
SWIDTH 479 0
DWIDTH 9 0
BBX 8 9 1 0
BITMAP
1F
31
31
38
1C
0E
C6
CE
FC
ENDCHAR
STARTCHAR t
ENCODING 116
SWIDTH 375 0
DWIDTH 7 0
BBX 6 12 2 0
BITMAP
30
30
30
FC
70
60
60
60
E0
E0
E0
70
ENDCHAR
STARTCHAR u
ENCODING 117
SWIDTH 655 0
DWIDTH 12 0
BBX 10 9 2 0
BITMAP
F3C0
71C0
7180
6180
6380
E780
EB80
FB00
E3C0
ENDCHAR
STARTCHAR v
ENCODING 118
SWIDTH 584 0
DWIDTH 11 0
BBX 10 9 2 0
BITMAP
F1C0
70C0
7180
3180
3B00
3A00
3C00
1800
1000
ENDCHAR
STARTCHAR w
ENCODING 119
SWIDTH 822 0
DWIDTH 15 0
BBX 15 9 1 0
BITMAP
E18E
7186
318C
33C8
3FD8
3CF0
38E0
18C0
1080
ENDCHAR
STARTCHAR x
ENCODING 120
SWIDTH 534 0
DWIDTH 10 0
BBX 9 9 1 0
BITMAP
7180
3980
1B00
1E00
1C00
3E00
6E00
C700
C780
ENDCHAR
STARTCHAR y
ENCODING 121
SWIDTH 586 0
DWIDTH 11 0
BBX 12 12 0 -3
BITMAP
3870
1C30
1C20
0C60
0CC0
0F80
0F00
0600
0400
0800
1000
F000
ENDCHAR
STARTCHAR z
ENCODING 122
SWIDTH 567 0
DWIDTH 10 0
BBX 10 9 1 0
BITMAP
3FC0
2380
2700
0E00
0E00
1C00
3880
7180
FF80
ENDCHAR
STARTCHAR braceleft
ENCODING 123
SWIDTH 361 0
DWIDTH 6 0
BBX 7 16 1 -3
BITMAP
0E
1C
18
18
18
18
18
30
E0
30
70
70
E0
E0
C0
70
ENDCHAR
STARTCHAR bar
ENCODING 124
SWIDTH 253 0
DWIDTH 5 0
BBX 5 16 1 -3
BITMAP
18
18
10
10
10
30
30
20
20
60
60
40
40
40
C0
C0
ENDCHAR
STARTCHAR braceright
ENCODING 125
SWIDTH 361 0
DWIDTH 6 0
BBX 7 16 0 -3
BITMAP
1C
0E
0E
0E
1C
18
18
0E
08
30
30
30
30
30
70
E0
ENDCHAR
STARTCHAR asciitilde
ENCODING 126
SWIDTH 636 0
DWIDTH 11 0
BBX 11 4 1 3
BITMAP
3820
4C20
8640
8380
ENDCHAR
STARTCHAR space
ENCODING 160
SWIDTH 333 0
DWIDTH 6 0
BBX 1 1 0 0
BITMAP
00
ENDCHAR
STARTCHAR exclamdown
ENCODING 161
SWIDTH 265 0
DWIDTH 5 0
BBX 5 12 0 -3
BITMAP
38
38
00
30
30
30
60
60
60
E0
E0
E0
ENDCHAR
STARTCHAR cent
ENCODING 162
SWIDTH 636 0
DWIDTH 11 0
BBX 9 13 2 0
BITMAP
0200
0200
1F80
3C80
7480
6400
E400
E400
E800
E900
7E00
0800
1800
ENDCHAR
STARTCHAR sterling
ENCODING 163
SWIDTH 636 0
DWIDTH 11 0
BBX 11 13 2 0
BITMAP
03E0
0660
0E60
0C00
0C00
1C00
3F00
1C00
1800
3800
2000
FF80
FF00
ENDCHAR
STARTCHAR currency
ENCODING 164
SWIDTH 636 0
DWIDTH 12 0
BBX 13 13 1 0
BITMAP
2008
1010
1F20
0CC0
1840
1040
1040
1040
10C0
1980
2FC0
4040
8020
ENDCHAR
STARTCHAR yen
ENCODING 165
SWIDTH 636 0
DWIDTH 11 0
BBX 12 13 2 0
BITMAP
F870
7060
3040
3880
3900
1E00
1E00
7F00
1C00
7F00
1800
3800
7C00
ENDCHAR
STARTCHAR brokenbar
ENCODING 166
SWIDTH 253 0
DWIDTH 5 0
BBX 5 16 1 -3
BITMAP
18
18
10
10
10
30
30
00
00
60
60
40
40
40
C0
C0
ENDCHAR
STARTCHAR section
ENCODING 167
SWIDTH 636 0
DWIDTH 11 0
BBX 10 16 2 -3
BITMAP
0FC0
18C0
30C0
3800
3C00
1F00
3780
6380
7180
7D00
3E00
0F00
0300
C300
C700
FC00
ENDCHAR
STARTCHAR dieresis
ENCODING 168
SWIDTH 599 0
DWIDTH 11 0
BBX 6 1 5 12
BITMAP
CC
ENDCHAR
STARTCHAR copyright
ENCODING 169
SWIDTH 853 0
DWIDTH 15 0
BBX 13 13 2 0
BITMAP
0F80
1060
2030
47D0
8C48
9808
9808
9008
9808
4F90
2030
1060
0F80
ENDCHAR
STARTCHAR ordfeminine
ENCODING 170
SWIDTH 468 0
DWIDTH 8 0
BBX 8 7 2 6
BITMAP
1F
66
66
CE
D6
FE
EF
ENDCHAR
STARTCHAR guillemotleft
ENCODING 171
SWIDTH 527 0
DWIDTH 9 0
BBX 9 9 1 0
BITMAP
0880
1980
3300
6600
EC00
6E00
6600
3200
2300
ENDCHAR
STARTCHAR logicalnot
ENCODING 172
SWIDTH 636 0
DWIDTH 11 0
BBX 11 4 1 3
BITMAP
FFE0
0060
0040
0040
ENDCHAR
STARTCHAR hyphen
ENCODING 173
SWIDTH 289 0
DWIDTH 5 0
BBX 4 1 2 5
BITMAP
F0
ENDCHAR
STARTCHAR registered
ENCODING 174
SWIDTH 636 0
DWIDTH 11 0
BBX 8 9 3 4
BITMAP
3C
42
BD
97
BD
A9
A5
42
3C
ENDCHAR
STARTCHAR macron
ENCODING 175
SWIDTH 599 0
DWIDTH 11 0
BBX 6 1 5 12
BITMAP
FC
ENDCHAR
STARTCHAR degree
ENCODING 176
SWIDTH 259 0
DWIDTH 5 0
BBX 3 3 4 10
BITMAP
E0
A0
E0
ENDCHAR
STARTCHAR plusminus
ENCODING 177
SWIDTH 636 0
DWIDTH 11 0
BBX 12 11 0 0
BITMAP
0100
0300
0300
0200
7FF0
0200
0200
0600
0400
0000
FFE0
ENDCHAR
STARTCHAR twosuperior
ENCODING 178
SWIDTH 381 0
DWIDTH 7 0
BBX 6 9 -10 4
BITMAP
38
4C
0C
0C
18
20
40
C0
F8
ENDCHAR
STARTCHAR threesuperior
ENCODING 179
SWIDTH 381 0
DWIDTH 7 0
BBX 6 9 -10 4
BITMAP
38
4C
0C
08
78
08
08
98
F0
ENDCHAR
STARTCHAR acute
ENCODING 180
SWIDTH 599 0
DWIDTH 11 0
BBX 5 3 6 10
BITMAP
38
60
C0
ENDCHAR
STARTCHAR mu
ENCODING 181
SWIDTH 687 0
DWIDTH 12 0
BBX 11 12 1 -3
BITMAP
79E0
38E0
38C0
30C0
31C0
71C0
73C0
75C0
79E0
6000
E000
E000
ENDCHAR
STARTCHAR paragraph
ENCODING 182
SWIDTH 636 0
DWIDTH 11 0
BBX 8 16 3 -3
BITMAP
7F
F9
FA
F2
F2
72
32
14
24
24
24
24
24
28
48
48
ENDCHAR
STARTCHAR periodcentered
ENCODING 183
SWIDTH 636 0
DWIDTH 11 0
BBX 3 2 5 4
BITMAP
E0
E0
ENDCHAR
STARTCHAR cedilla
ENCODING 184
SWIDTH 599 0
DWIDTH 11 0
BBX 3 3 3 -3
BITMAP
60
20
E0
ENDCHAR
STARTCHAR onesuperior
ENCODING 185
SWIDTH 381 0
DWIDTH 7 0
BBX 4 9 -11 4
BITMAP
70
30
30
20
20
20
20
60
F0
ENDCHAR
STARTCHAR ordmasculine
ENCODING 186
SWIDTH 468 0
DWIDTH 8 0
BBX 8 7 2 6
BITMAP
1E
33
63
C3
C6
C4
78
ENDCHAR
STARTCHAR guillemotright
ENCODING 187
SWIDTH 527 0
DWIDTH 9 0
BBX 9 9 1 0
BITMAP
6200
2600
3300
3B00
1B80
3300
6600
CC00
8800
ENDCHAR
STARTCHAR onequarter
ENCODING 188
SWIDTH 818 0
DWIDTH 15 0
BBX 14 13 4 0
BITMAP
700C
3010
3030
2060
20D8
21B8
2370
66D0
FD90
19F8
3030
6030
C070
ENDCHAR
STARTCHAR onehalf
ENCODING 189
SWIDTH 818 0
DWIDTH 15 0
BBX 14 13 4 0
BITMAP
700C
3010
3030
2060
20F0
2198
2318
6618
FC30
1840
3080
6180
C1F0
ENDCHAR
STARTCHAR threequarters
ENCODING 190
SWIDTH 818 0
DWIDTH 15 0
BBX 14 13 4 0
BITMAP
380C
4C10
0C30
0860
78D8
09B8
0B70
9ED0
FD90
19F8
3030
6030
C070
ENDCHAR
STARTCHAR questiondown
ENCODING 191
SWIDTH 493 0
DWIDTH 9 0
BBX 8 12 0 -3
BITMAP
07
07
00
06
0E
0C
10
60
E0
E3
E3
7E
ENDCHAR
STARTCHAR Agrave
ENCODING 192
SWIDTH 765 0
DWIDTH 14 0
BBX 14 17 0 0
BITMAP
00E0
0060
0030
0000
00C0
00E0
01E0
01E0
0260
0460
0470
0870
1FF0
1030
2038
6038
F07C
ENDCHAR
STARTCHAR Aacute
ENCODING 193
SWIDTH 765 0
DWIDTH 14 0
BBX 14 17 0 0
BITMAP
0038
0060
00C0
0000
00C0
00E0
01E0
01E0
0260
0460
0470
0870
1FF0
1030
2038
6038
F07C
ENDCHAR
STARTCHAR Acircumflex
ENCODING 194
SWIDTH 765 0
DWIDTH 14 0
BBX 14 17 0 0
BITMAP
0070
00F0
0198
0000
00C0
00E0
01E0
01E0
0260
0460
0470
0870
1FF0
1030
2038
6038
F07C
ENDCHAR
STARTCHAR Atilde
ENCODING 195
SWIDTH 765 0
DWIDTH 14 0
BBX 14 16 0 0
BITMAP
00E8
0170
0000
00C0
00E0
01E0
01E0
0260
0460
0470
0870
1FF0
1030
2038
6038
F07C
ENDCHAR
STARTCHAR Adieresis
ENCODING 196
SWIDTH 765 0
DWIDTH 14 0
BBX 14 15 0 0
BITMAP
0198
0000
00C0
00E0
01E0
01E0
0260
0460
0470
0870
1FF0
1030
2038
6038
F07C
ENDCHAR
STARTCHAR Aring
ENCODING 197
SWIDTH 765 0
DWIDTH 14 0
BBX 14 17 0 0
BITMAP
0070
0050
0070
0000
00C0
00E0
01E0
01E0
0260
0460
0470
0870
1FF0
1030
2038
6038
F07C
ENDCHAR
STARTCHAR AE
ENCODING 198
SWIDTH 958 0
DWIDTH 17 0
BBX 19 13 0 0
BITMAP
003FE0
007860
007800
00B800
013080
023F80
067180
047000
0FF000
106000
206000
60E080
E1FF80
ENDCHAR
STARTCHAR Ccedilla
ENCODING 199
SWIDTH 740 0
DWIDTH 13 0
BBX 13 16 2 -3
BITMAP
03F8
0C18
1818
3010
7000
6000
E000
E000
E000
E000
7000
7860
1F80
0800
0400
1C00
ENDCHAR
STARTCHAR Egrave
ENCODING 200
SWIDTH 630 0
DWIDTH 11 0
BBX 12 17 1 0
BITMAP
0380
0180
00C0
0000
3FF0
0C30
1C00
1C00
1C00
1C40
1F80
3880
3800
3800
3840
70C0
FFC0
ENDCHAR
STARTCHAR Eacute
ENCODING 201
SWIDTH 630 0
DWIDTH 11 0
BBX 12 17 1 0
BITMAP
00E0
0180
0300
0000
3FF0
0C30
1C00
1C00
1C00
1C40
1F80
3880
3800
3800
3840
70C0
FFC0
ENDCHAR
STARTCHAR Ecircumflex
ENCODING 202
SWIDTH 630 0
DWIDTH 11 0
BBX 12 17 1 0
BITMAP
01C0
03C0
0660
0000
3FF0
0C30
1C00
1C00
1C00
1C40
1F80
3880
3800
3800
3840
70C0
FFC0
ENDCHAR
STARTCHAR Edieresis
ENCODING 203
SWIDTH 630 0
DWIDTH 11 0
BBX 12 15 1 0
BITMAP
0660
0000
3FF0
0C30
1C00
1C00
1C00
1C40
1F80
3880
3800
3800
3840
70C0
FFC0
ENDCHAR
STARTCHAR Igrave
ENCODING 204
SWIDTH 372 0
DWIDTH 7 0
BBX 8 17 1 0
BITMAP
1C
0C
06
00
3F
0E
1C
1C
1C
1C
18
38
38
38
38
70
FC
ENDCHAR
STARTCHAR Iacute
ENCODING 205
SWIDTH 372 0
DWIDTH 7 0
BBX 9 17 1 0
BITMAP
0380
0600
0C00
0000
3F00
0E00
1C00
1C00
1C00
1C00
1800
3800
3800
3800
3800
7000
FC00
ENDCHAR
STARTCHAR Icircumflex
ENCODING 206
SWIDTH 372 0
DWIDTH 7 0
BBX 8 17 1 0
BITMAP
0E
1E
33
00
3F
0E
1C
1C
1C
1C
18
38
38
38
38
70
FC
ENDCHAR
STARTCHAR Idieresis
ENCODING 207
SWIDTH 372 0
DWIDTH 7 0
BBX 9 15 1 0
BITMAP
1980
0000
3F00
0E00
1C00
1C00
1C00
1C00
1800
3800
3800
3800
3800
7000
FC00
ENDCHAR
STARTCHAR Eth
ENCODING 208
SWIDTH 822 0
DWIDTH 15 0
BBX 15 13 0 0
BITMAP
3FF8
0E1C
0C0E
1C0E
1C0E
1C0E
7F8E
180E
381C
381C
3838
78F0
FFC0
ENDCHAR
STARTCHAR Ntilde
ENCODING 209
SWIDTH 797 0
DWIDTH 14 0
BBX 16 16 0 0
BITMAP
00E8
0170
0000
3C0F
0E06
0E04
1F04
1B0C
1388
11C8
11C8
30E8
20F8
2070
6030
F030
ENDCHAR
STARTCHAR Ograve
ENCODING 210
SWIDTH 831 0
DWIDTH 15 0
BBX 14 17 2 0
BITMAP
0380
0180
00C0
0000
03E0
0C30
1818
301C
701C
601C
E018
E038
E038
E070
E060
71C0
1F00
ENDCHAR
STARTCHAR Oacute
ENCODING 211
SWIDTH 831 0
DWIDTH 15 0
BBX 14 17 2 0
BITMAP
0070
00C0
0180
0000
03E0
0C30
1818
301C
701C
601C
E018
E038
E038
E070
E060
71C0
1F00
ENDCHAR
STARTCHAR Ocircumflex
ENCODING 212
SWIDTH 831 0
DWIDTH 15 0
BBX 14 17 2 0
BITMAP
01C0
03C0
0660
0000
03E0
0C30
1818
301C
701C
601C
E018
E038
E038
E070
E060
71C0
1F00
ENDCHAR
STARTCHAR Otilde
ENCODING 213
SWIDTH 831 0
DWIDTH 15 0
BBX 14 16 2 0
BITMAP
01D0
02E0
0000
03E0
0C30
1818
301C
701C
601C
E018
E038
E038
E070
E060
71C0
1F00
ENDCHAR
STARTCHAR Odieresis
ENCODING 214
SWIDTH 831 0
DWIDTH 15 0
BBX 14 15 2 0
BITMAP
0660
0000
03E0
0C30
1818
301C
701C
601C
E018
E038
E038
E070
E060
71C0
1F00
ENDCHAR
STARTCHAR multiply
ENCODING 215
SWIDTH 636 0
DWIDTH 11 0
BBX 12 11 1 0
BITMAP
2010
3020
1840
0980
0F00
0600
0F00
1900
2180
40C0
8040
ENDCHAR
STARTCHAR Oslash
ENCODING 216
SWIDTH 831 0
DWIDTH 15 0
BBX 16 13 1 0
BITMAP
01F3
061C
0C0C
181E
382E
30CE
718E
731C
761C
7818
7030
3860
CF80
ENDCHAR
STARTCHAR Ugrave
ENCODING 217
SWIDTH 775 0
DWIDTH 14 0
BBX 13 17 3 0
BITMAP
0700
0300
0180
0000
FC78
7030
7020
7020
7020
6020
E020
E040
E040
E040
E080
7180
3E00
ENDCHAR
STARTCHAR Uacute
ENCODING 218
SWIDTH 775 0
DWIDTH 14 0
BBX 13 17 3 0
BITMAP
01C0
0300
0600
0000
FC78
7030
7020
7020
7020
6020
E020
E040
E040
E040
E080
7180
3E00
ENDCHAR
STARTCHAR Ucircumflex
ENCODING 219
SWIDTH 775 0
DWIDTH 14 0
BBX 13 17 3 0
BITMAP
0380
0780
0CC0
0000
FC78
7030
7020
7020
7020
6020
E020
E040
E040
E040
E080
7180
3E00
ENDCHAR
STARTCHAR Udieresis
ENCODING 220
SWIDTH 775 0
DWIDTH 14 0
BBX 13 15 3 0
BITMAP
0CC0
0000
FC78
7030
7020
7020
7020
6020
E020
E040
E040
E040
E080
7180
3E00
ENDCHAR
STARTCHAR Yacute
ENCODING 221
SWIDTH 669 0
DWIDTH 12 0
BBX 12 17 3 0
BITMAP
01C0
0300
0600
0000
F870
7060
7040
3880
3900
1A00
1E00
1C00
1C00
1C00
1800
3800
7E00
ENDCHAR
STARTCHAR Thorn
ENCODING 222
SWIDTH 628 0
DWIDTH 11 0
BBX 12 13 0 0
BITMAP
3F00
0E00
0C00
1FE0
1C70
1C70
1C70
1860
38E0
3F80
3800
3800
FC00
ENDCHAR
STARTCHAR germandbls
ENCODING 223
SWIDTH 656 0
DWIDTH 12 0
BBX 11 17 1 -3
BITMAP
07C0
0CC0
1CE0
18C0
1880
3900
3B00
3B80
31C0
30E0
7060
7460
74E0
6780
6000
E000
E000
ENDCHAR
STARTCHAR agrave
ENCODING 224
SWIDTH 634 0
DWIDTH 11 0
BBX 11 13 1 0
BITMAP
0700
0300
0180
0000
07E0
18E0
30C0
61C0
61C0
E3C0
E5C0
F980
73E0
ENDCHAR
STARTCHAR aacute
ENCODING 225
SWIDTH 634 0
DWIDTH 11 0
BBX 11 13 1 0
BITMAP
00E0
0180
0300
0000
07E0
18E0
30C0
61C0
61C0
E3C0
E5C0
F980
73E0
ENDCHAR
STARTCHAR acircumflex
ENCODING 226
SWIDTH 634 0
DWIDTH 11 0
BBX 11 13 1 0
BITMAP
0380
0780
0CC0
0000
07E0
18E0
30C0
61C0
61C0
E3C0
E5C0
F980
73E0
ENDCHAR
STARTCHAR atilde
ENCODING 227
SWIDTH 634 0
DWIDTH 11 0
BBX 11 12 1 0
BITMAP
03A0
05C0
0000
07E0
18E0
30C0
61C0
61C0
E3C0
E5C0
F980
73E0
ENDCHAR
STARTCHAR adieresis
ENCODING 228
SWIDTH 634 0
DWIDTH 11 0
BBX 11 11 1 0
BITMAP
0660
0000
07E0
18E0
30C0
61C0
61C0
E3C0
E5C0
F980
73E0
ENDCHAR
STARTCHAR aring
ENCODING 229
SWIDTH 634 0
DWIDTH 11 0
BBX 11 13 1 0
BITMAP
0380
0280
0380
0000
07E0
18E0
30C0
61C0
61C0
E3C0
E5C0
F980
73E0
ENDCHAR
STARTCHAR ae
ENCODING 230
SWIDTH 905 0
DWIDTH 16 0
BBX 15 9 1 0
BITMAP
0FDC
11EE
31C6
618E
619C
E3F0
E580
E9C6
70F8
ENDCHAR
STARTCHAR ccedilla
ENCODING 231
SWIDTH 524 0
DWIDTH 9 0
BBX 9 12 1 -3
BITMAP
0F80
3980
7180
6000
E000
E000
E000
E100
7E00
2000
1000
7000
ENDCHAR
STARTCHAR egrave
ENCODING 232
SWIDTH 548 0
DWIDTH 10 0
BBX 9 13 1 0
BITMAP
0E00
0600
0300
0000
0F00
3380
6380
6300
E700
FC00
E000
E180
7E00
ENDCHAR
STARTCHAR eacute
ENCODING 233
SWIDTH 548 0
DWIDTH 10 0
BBX 10 13 1 0
BITMAP
01C0
0300
0600
0000
0F00
3380
6380
6300
E700
FC00
E000
E180
7E00
ENDCHAR
STARTCHAR ecircumflex
ENCODING 234
SWIDTH 548 0
DWIDTH 10 0
BBX 9 13 1 0
BITMAP
0700
0F00
1980
0000
0F00
3380
6380
6300
E700
FC00
E000
E180
7E00
ENDCHAR
STARTCHAR edieresis
ENCODING 235
SWIDTH 548 0
DWIDTH 10 0
BBX 9 11 1 0
BITMAP
1980
0000
0F00
3380
6380
6300
E700
FC00
E000
E180
7E00
ENDCHAR
STARTCHAR igrave
ENCODING 236
SWIDTH 319 0
DWIDTH 6 0
BBX 6 13 1 0
BITMAP
38
18
0C
00
F8
38
30
70
70
70
60
E0
F8
ENDCHAR
STARTCHAR iacute
ENCODING 237
SWIDTH 319 0
DWIDTH 6 0
BBX 7 13 1 0
BITMAP
0E
18
30
00
F8
38
30
70
70
70
60
E0
F8
ENDCHAR
STARTCHAR icircumflex
ENCODING 238
SWIDTH 319 0
DWIDTH 6 0
BBX 7 13 1 0
BITMAP
1C
3C
66
00
F8
38
30
70
70
70
60
E0
F8
ENDCHAR
STARTCHAR idieresis
ENCODING 239
SWIDTH 319 0
DWIDTH 6 0
BBX 7 11 1 0
BITMAP
66
00
F8
38
30
70
70
70
60
E0
F8
ENDCHAR
STARTCHAR eth
ENCODING 240
SWIDTH 617 0
DWIDTH 11 0
BBX 10 14 2 0
BITMAP
0080
3F00
0F00
1F80
1180
0FC0
31C0
61C0
61C0
E180
E180
E300
E200
7C00
ENDCHAR
STARTCHAR ntilde
ENCODING 241
SWIDTH 656 0
DWIDTH 12 0
BBX 10 12 2 0
BITMAP
0740
0B80
0000
F180
37C0
7DC0
79C0
7180
6180
6380
E380
E3C0
ENDCHAR
STARTCHAR ograve
ENCODING 242
SWIDTH 599 0
DWIDTH 11 0
BBX 10 13 1 0
BITMAP
0E00
0600
0300
0000
0F80
39C0
71C0
61C0
E1C0
E180
E380
E300
7C00
ENDCHAR
STARTCHAR oacute
ENCODING 243
SWIDTH 599 0
DWIDTH 11 0
BBX 10 13 1 0
BITMAP
01C0
0300
0600
0000
0F80
39C0
71C0
61C0
E1C0
E180
E380
E300
7C00
ENDCHAR
STARTCHAR ocircumflex
ENCODING 244
SWIDTH 599 0
DWIDTH 11 0
BBX 10 13 1 0
BITMAP
0380
0780
0CC0
0000
0F80
39C0
71C0
61C0
E1C0
E180
E380
E300
7C00
ENDCHAR
STARTCHAR otilde
ENCODING 245
SWIDTH 599 0
DWIDTH 11 0
BBX 10 12 1 0
BITMAP
0740
0B80
0000
0F80
39C0
71C0
61C0
E1C0
E180
E380
E300
7C00
ENDCHAR
STARTCHAR odieresis
ENCODING 246
SWIDTH 599 0
DWIDTH 11 0
BBX 10 11 1 0
BITMAP
0CC0
0000
0F80
39C0
71C0
61C0
E1C0
E180
E380
E300
7C00
ENDCHAR
STARTCHAR divide
ENCODING 247
SWIDTH 636 0
DWIDTH 11 0
BBX 11 9 1 0
BITMAP
0600
0600
0000
0000
FFE0
0000
0000
0C00
0C00
ENDCHAR
STARTCHAR oslash
ENCODING 248
SWIDTH 599 0
DWIDTH 11 0
BBX 12 9 1 0
BITMAP
07B0
18C0
30E0
73E0
74C0
78C0
7180
7300
FE00
ENDCHAR
STARTCHAR ugrave
ENCODING 249
SWIDTH 655 0
DWIDTH 12 0
BBX 10 13 2 0
BITMAP
0E00
0600
0300
0000
F3C0
71C0
7180
6180
6380
E780
EB80
FB00
E3C0
ENDCHAR
STARTCHAR uacute
ENCODING 250
SWIDTH 655 0
DWIDTH 12 0
BBX 10 13 2 0
BITMAP
01C0
0300
0600
0000
F3C0
71C0
7180
6180
6380
E780
EB80
FB00
E3C0
ENDCHAR
STARTCHAR ucircumflex
ENCODING 251
SWIDTH 655 0
DWIDTH 12 0
BBX 10 13 2 0
BITMAP
0380
0780
0CC0
0000
F3C0
71C0
7180
6180
6380
E780
EB80
FB00
E3C0
ENDCHAR
STARTCHAR udieresis
ENCODING 252
SWIDTH 655 0
DWIDTH 12 0
BBX 10 11 2 0
BITMAP
0CC0
0000
F3C0
71C0
7180
6180
6380
E780
EB80
FB00
E3C0
ENDCHAR
STARTCHAR yacute
ENCODING 253
SWIDTH 586 0
DWIDTH 11 0
BBX 12 16 0 -3
BITMAP
0070
00C0
0180
0000
3870
1C30
1C20
0C60
0CC0
0F80
0F00
0600
0400
0800
1000
F000
ENDCHAR
STARTCHAR thorn
ENCODING 254
SWIDTH 639 0
DWIDTH 11 0
BBX 11 16 1 -3
BITMAP
7C00
3800
1800
1800
39C0
3BE0
3EE0
3CE0
38E0
70C0
7180
7100
7E00
6000
E000
E000
ENDCHAR
STARTCHAR ydieresis
ENCODING 255
SWIDTH 586 0
DWIDTH 11 0
BBX 12 14 0 -3
BITMAP
0660
0000
3870
1C30
1C20
0C60
0CC0
0F80
0F00
0600
0400
0800
1000
F000
ENDCHAR
STARTCHAR Amacron
ENCODING 256
SWIDTH 765 0
DWIDTH 14 0
BBX 14 15 0 0
BITMAP
07E0
0000
00C0
00E0
01E0
01E0
0260
0460
0470
0870
1FF0
1030
2038
6038
F07C
ENDCHAR
STARTCHAR amacron
ENCODING 257
SWIDTH 634 0
DWIDTH 11 0
BBX 11 11 1 0
BITMAP
0FC0
0000
07E0
18E0
30C0
61C0
61C0
E3C0
E5C0
F980
73E0
ENDCHAR
STARTCHAR Abreve
ENCODING 258
SWIDTH 765 0
DWIDTH 14 0
BBX 14 17 0 0
BITMAP
0210
03E0
01C0
0000
00C0
00E0
01E0
01E0
0260
0460
0470
0870
1FF0
1030
2038
6038
F07C
ENDCHAR
STARTCHAR abreve
ENCODING 259
SWIDTH 634 0
DWIDTH 11 0
BBX 11 13 1 0
BITMAP
0840
0F80
0700
0000
07E0
18E0
30C0
61C0
61C0
E3C0
E5C0
F980
73E0
ENDCHAR
STARTCHAR Aogonek
ENCODING 260
SWIDTH 765 0
DWIDTH 14 0
BBX 14 16 0 -3
BITMAP
00C0
00E0
01E0
01E0
0260
0460
0470
0870
1FF0
1030
2038
6038
F07C
0100
0200
0380
ENDCHAR
STARTCHAR aogonek
ENCODING 261
SWIDTH 634 0
DWIDTH 11 0
BBX 11 12 1 -3
BITMAP
07E0
18E0
30C0
61C0
61C0
E3C0
E5C0
F980
73E0
0400
0800
0E00
ENDCHAR
STARTCHAR Cacute
ENCODING 262
SWIDTH 740 0
DWIDTH 13 0
BBX 13 17 2 0
BITMAP
00E0
0180
0300
0000
03F8
0C18
1818
3010
7000
6000
E000
E000
E000
E000
7000
7860
1F80
ENDCHAR
STARTCHAR cacute
ENCODING 263
SWIDTH 524 0
DWIDTH 9 0
BBX 9 13 1 0
BITMAP
0380
0600
0C00
0000
0F80
3980
7180
6000
E000
E000
E000
E100
7E00
ENDCHAR
STARTCHAR Ccircumflex
ENCODING 264
SWIDTH 740 0
DWIDTH 13 0
BBX 13 17 2 0
BITMAP
01C0
03C0
0660
0000
03F8
0C18
1818
3010
7000
6000
E000
E000
E000
E000
7000
7860
1F80
ENDCHAR
STARTCHAR ccircumflex
ENCODING 265
SWIDTH 524 0
DWIDTH 9 0
BBX 9 13 1 0
BITMAP
0E00
1E00
3300
0000
0F80
3980
7180
6000
E000
E000
E000
E100
7E00
ENDCHAR
STARTCHAR Cdotaccent
ENCODING 266
SWIDTH 740 0
DWIDTH 13 0
BBX 13 16 2 0
BITMAP
0380
0380
0000
03F8
0C18
1818
3010
7000
6000
E000
E000
E000
E000
7000
7860
1F80
ENDCHAR
STARTCHAR cdotaccent
ENCODING 267
SWIDTH 524 0
DWIDTH 9 0
BBX 9 12 1 0
BITMAP
0E00
0E00
0000
0F80
3980
7180
6000
E000
E000
E000
E100
7E00
ENDCHAR
STARTCHAR Ccaron
ENCODING 268
SWIDTH 740 0
DWIDTH 13 0
BBX 13 17 2 0
BITMAP
0460
02C0
0380
0000
03F8
0C18
1818
3010
7000
6000
E000
E000
E000
E000
7000
7860
1F80
ENDCHAR
STARTCHAR ccaron
ENCODING 269
SWIDTH 524 0
DWIDTH 9 0
BBX 9 13 1 0
BITMAP
1180
0B00
0E00
0000
0F80
3980
7180
6000
E000
E000
E000
E100
7E00
ENDCHAR
STARTCHAR Dcaron
ENCODING 270
SWIDTH 822 0
DWIDTH 15 0
BBX 15 17 0 0
BITMAP
0230
0160
01C0
0000
3FF8
0E1C
0C0E
1C0E
1C0E
1C0E
1C0E
180E
381C
381C
3838
7870
FFC0
ENDCHAR
STARTCHAR dcaron
ENCODING 271
SWIDTH 867 0
DWIDTH 15 0
BBX 16 13 1 0
BITMAP
01E7
00E7
00C2
00C6
0FCC
11C0
31C0
6180
6380
E580
EF80
FB80
73C0
ENDCHAR
STARTCHAR Dcroat
ENCODING 272
SWIDTH 822 0
DWIDTH 15 0
BBX 15 13 0 0
BITMAP
3FF8
0E1C
0C0E
1C0E
1C0E
1C0E
7F8E
180E
381C
381C
3838
78F0
FFC0
ENDCHAR
STARTCHAR dcroat
ENCODING 273
SWIDTH 634 0
DWIDTH 11 0
BBX 12 13 1 0
BITMAP
01E0
00E0
0FF0
00C0
0FC0
11C0
31C0
6180
6380
E580
EF80
FB80
73C0
ENDCHAR
STARTCHAR Emacron
ENCODING 274
SWIDTH 630 0
DWIDTH 11 0
BBX 12 15 1 0
BITMAP
1F80
0000
3FF0
0C30
1C00
1C00
1C00
1C40
1F80
3880
3800
3800
3840
70C0
FFC0
ENDCHAR
STARTCHAR emacron
ENCODING 275
SWIDTH 548 0
DWIDTH 10 0
BBX 9 11 1 0
BITMAP
3F00
0000
0F00
3380
6380
6300
E700
FC00
E000
E180
7E00
ENDCHAR
STARTCHAR Ebreve
ENCODING 276
SWIDTH 630 0
DWIDTH 11 0
BBX 12 17 1 0
BITMAP
0840
0F80
0700
0000
3FF0
0C30
1C00
1C00
1C00
1C40
1F80
3880
3800
3800
3840
70C0
FFC0
ENDCHAR
STARTCHAR ebreve
ENCODING 277
SWIDTH 548 0
DWIDTH 10 0
BBX 9 13 1 0
BITMAP
1080
1F00
0E00
0000
0F00
3380
6380
6300
E700
FC00
E000
E180
7E00
ENDCHAR
STARTCHAR Edotaccent
ENCODING 278
SWIDTH 630 0
DWIDTH 11 0
BBX 12 16 1 0
BITMAP
0700
0700
0000
3FF0
0C30
1C00
1C00
1C00
1C40
1F80
3880
3800
3800
3840
70C0
FFC0
ENDCHAR
STARTCHAR edotaccent
ENCODING 279
SWIDTH 548 0
DWIDTH 10 0
BBX 9 12 1 0
BITMAP
0E00
0E00
0000
0F00
3380
6380
6300
E700
FC00
E000
E180
7E00
ENDCHAR
STARTCHAR Eogonek
ENCODING 280
SWIDTH 630 0
DWIDTH 11 0
BBX 12 16 1 -3
BITMAP
3FF0
0C30
1C00
1C00
1C00
1C40
1F80
3880
3800
3800
3840
70C0
FFC0
0400
0800
0E00
ENDCHAR
STARTCHAR eogonek
ENCODING 281
SWIDTH 548 0
DWIDTH 10 0
BBX 9 12 1 -3
BITMAP
0F00
3380
6380
6300
E700
FC00
E000
E180
7E00
1000
2000
3800
ENDCHAR
STARTCHAR Ecaron
ENCODING 282
SWIDTH 630 0
DWIDTH 11 0
BBX 12 17 1 0
BITMAP
08C0
0580
0700
0000
3FF0
0C30
1C00
1C00
1C00
1C40
1F80
3880
3800
3800
3840
70C0
FFC0
ENDCHAR
STARTCHAR ecaron
ENCODING 283
SWIDTH 548 0
DWIDTH 10 0
BBX 9 13 1 0
BITMAP
1180
0B00
0E00
0000
0F00
3380
6380
6300
E700
FC00
E000
E180
7E00
ENDCHAR
STARTCHAR Gcircumflex
ENCODING 284
SWIDTH 780 0
DWIDTH 14 0
BBX 13 17 2 0
BITMAP
01C0
03C0
0660
0000
03F8
0E18
1818
3000
7000
6000
E000
E1F8
E070
E0E0
60E0
70E0
1F80
ENDCHAR
STARTCHAR gcircumflex
ENCODING 285
SWIDTH 628 0
DWIDTH 11 0
BBX 11 16 1 -3
BITMAP
0380
0780
0CC0
0000
07E0
18E0
30E0
30C0
71C0
63C0
67C0
7D80
7380
8380
C300
7C00
ENDCHAR
STARTCHAR Gbreve
ENCODING 286
SWIDTH 780 0
DWIDTH 14 0
BBX 13 17 2 0
BITMAP
0420
07C0
0380
0000
03F8
0E18
1818
3000
7000
6000
E000
E1F8
E070
E0E0
60E0
70E0
1F80
ENDCHAR
STARTCHAR gbreve
ENCODING 287
SWIDTH 628 0
DWIDTH 11 0
BBX 11 16 1 -3
BITMAP
0840
0F80
0700
0000
07E0
18E0
30E0
30C0
71C0
63C0
67C0
7D80
7380
8380
C300
7C00
ENDCHAR
STARTCHAR Gdotaccent
ENCODING 288
SWIDTH 780 0
DWIDTH 14 0
BBX 13 16 2 0
BITMAP
0380
0380
0000
03F8
0E18
1818
3000
7000
6000
E000
E1F8
E070
E0E0
60E0
70E0
1F80
ENDCHAR
STARTCHAR gdotaccent
ENCODING 289
SWIDTH 628 0
DWIDTH 11 0
BBX 11 15 1 -3
BITMAP
0700
0700
0000
07E0
18E0
30E0
30C0
71C0
63C0
67C0
7D80
7380
8380
C300
7C00
ENDCHAR
STARTCHAR Gcommaaccent
ENCODING 290
SWIDTH 780 0
DWIDTH 14 0
BBX 13 20 2 -7
BITMAP
03F8
0E18
1818
3000
7000
6000
E000
E1F8
E070
E0E0
60E0
70E0
1F80
0000
0700
0700
0700
0200
0600
0C00
ENDCHAR
STARTCHAR gcommaaccent
ENCODING 291
SWIDTH 628 0
DWIDTH 11 0
BBX 11 18 1 -3
BITMAP
0180
0300
0200
0700
0700
0000
07E0
18E0
30E0
30C0
71C0
63C0
67C0
7D80
7380
8380
C300
7C00
ENDCHAR
STARTCHAR Hcircumflex
ENCODING 292
SWIDTH 827 0
DWIDTH 15 0
BBX 16 17 1 0
BITMAP
00E0
01E0
0330
0000
3F3F
0E0E
1C1C
1C1C
1C1C
1C1C
1FF8
3838
3838
3838
3838
7070
FCFC
ENDCHAR
STARTCHAR hcircumflex
ENCODING 293
SWIDTH 656 0
DWIDTH 12 0
BBX 10 17 2 0
BITMAP
1C00
3C00
6600
0000
7800
3800
3800
3800
3180
37C0
75C0
79C0
7180
6180
6380
E380
E3C0
ENDCHAR
STARTCHAR Hbar
ENCODING 294
SWIDTH 827 0
DWIDTH 15 0
BBX 16 13 1 0
BITMAP
3F3F
0E0E
1C1C
FFFF
1C1C
1C1C
1FF8
3838
3838
3838
3838
7070
FCFC
ENDCHAR
STARTCHAR hbar
ENCODING 295
SWIDTH 656 0
DWIDTH 12 0
BBX 11 13 1 0
BITMAP
3C00
1C00
FF00
1C00
18C0
1BE0
3AE0
3CE0
38C0
30C0
31C0
71C0
71E0
ENDCHAR
STARTCHAR Itilde
ENCODING 296
SWIDTH 372 0
DWIDTH 7 0
BBX 8 16 1 0
BITMAP
1D
2E
00
3F
0E
1C
1C
1C
1C
18
38
38
38
38
70
FC
ENDCHAR
STARTCHAR itilde
ENCODING 297
SWIDTH 319 0
DWIDTH 6 0
BBX 6 12 1 0
BITMAP
74
B8
00
F8
38
30
70
70
70
60
E0
F8
ENDCHAR
STARTCHAR Imacron
ENCODING 298
SWIDTH 372 0
DWIDTH 7 0
BBX 8 15 1 0
BITMAP
3F
00
3F
0E
1C
1C
1C
1C
18
38
38
38
38
70
FC
ENDCHAR
STARTCHAR imacron
ENCODING 299
SWIDTH 319 0
DWIDTH 6 0
BBX 6 11 1 0
BITMAP
FC
00
F8
38
30
70
70
70
60
E0
F8
ENDCHAR
STARTCHAR Ibreve
ENCODING 300
SWIDTH 372 0
DWIDTH 7 0
BBX 8 17 1 0
BITMAP
21
3E
1C
00
3F
0E
1C
1C
1C
1C
18
38
38
38
38
70
FC
ENDCHAR
STARTCHAR ibreve
ENCODING 301
SWIDTH 319 0
DWIDTH 6 0
BBX 6 13 1 0
BITMAP
84
F8
70
00
F8
38
30
70
70
70
60
E0
F8
ENDCHAR
STARTCHAR Iogonek
ENCODING 302
SWIDTH 372 0
DWIDTH 7 0
BBX 8 16 1 -3
BITMAP
3F
0E
1C
1C
1C
1C
18
38
38
38
38
70
FC
10
20
38
ENDCHAR
STARTCHAR iogonek
ENCODING 303
SWIDTH 319 0
DWIDTH 6 0
BBX 5 16 2 -3
BITMAP
38
38
00
00
F0
70
70
70
60
60
E0
E0
F0
20
40
70
ENDCHAR
STARTCHAR Idotaccent
ENCODING 304
SWIDTH 372 0
DWIDTH 7 0
BBX 8 16 1 0
BITMAP
1C
1C
00
3F
0E
1C
1C
1C
1C
18
38
38
38
38
70
FC
ENDCHAR
STARTCHAR dotlessi
ENCODING 305
SWIDTH 319 0
DWIDTH 6 0
BBX 5 9 1 0
BITMAP
F8
38
30
70
70
70
60
E0
F8
ENDCHAR
STARTCHAR IJ
ENCODING 306
SWIDTH 831 0
DWIDTH 16 0
BBX 17 16 1 -3
BITMAP
3F1F80
0E0F00
1C0E00
1C0E00
1C0E00
1C0E00
180C00
381C00
381C00
381C00
381C00
701800
FC3800
033800
033000
03C000
ENDCHAR
STARTCHAR ij
ENCODING 307
SWIDTH 684 0
DWIDTH 13 0
BBX 13 17 2 -4
BITMAP
3838
3838
0000
0000
F0F0
7070
7070
7060
60E0
60E0
E0E0
E0E0
F0C0
01C0
1980
1980
1E00
ENDCHAR
STARTCHAR Jcircumflex
ENCODING 308
SWIDTH 478 0
DWIDTH 9 0
BBX 11 20 0 -3
BITMAP
0380
0780
0CC0
0000
07E0
03C0
0380
0380
0380
0380
0300
0700
0700
0700
0700
0600
0E00
CE00
CC00
F000
ENDCHAR
STARTCHAR jcircumflex
ENCODING 309
SWIDTH 381 0
DWIDTH 7 0
BBX 10 17 -1 -4
BITMAP
0380
0780
0CC0
0000
0780
0380
0380
0300
0700
0700
0700
0700
0600
0E00
CC00
CC00
F000
ENDCHAR
STARTCHAR Kcommaaccent
ENCODING 310
SWIDTH 746 0
DWIDTH 13 0
BBX 14 20 1 -7
BITMAP
3F3C
0E10
0C20
1C40
1D80
1A00
1F00
1B80
3BC0
39C0
30E0
70F0
F9F8
0000
0700
0700
0700
0200
0600
0C00
ENDCHAR
STARTCHAR kcommaaccent
ENCODING 311
SWIDTH 626 0
DWIDTH 11 0
BBX 10 20 2 -7
BITMAP
7800
3800
3800
3800
31C0
31C0
7380
7E00
7C00
6E00
6700
E380
E3C0
0000
1C00
1C00
1C00
0800
1800
3000
ENDCHAR
STARTCHAR kgreenlandic
ENCODING 312
SWIDTH 626 0
DWIDTH 11 0
BBX 10 9 2 0
BITMAP
31C0
31C0
7380
7E00
7C00
6E00
6700
E380
E3C0
ENDCHAR
STARTCHAR Lacute
ENCODING 313
SWIDTH 611 0
DWIDTH 11 0
BBX 11 17 0 0
BITMAP
0380
0600
0C00
0000
1F00
0E00
0C00
1C00
1C00
1C00
1C00
1800
3800
3800
3820
3860
FFC0
ENDCHAR
STARTCHAR lacute
ENCODING 314
SWIDTH 319 0
DWIDTH 6 0
BBX 7 17 2 0
BITMAP
0E
18
30
00
78
38
38
30
30
70
70
70
60
60
E0
E0
F0
ENDCHAR
STARTCHAR Lcommaaccent
ENCODING 315
SWIDTH 611 0
DWIDTH 11 0
BBX 11 20 0 -7
BITMAP
1F00
0E00
0C00
1C00
1C00
1C00
1C00
1800
3800
3800
3820
3860
FFC0
0000
0E00
0E00
0E00
0400
0C00
1800
ENDCHAR
STARTCHAR lcommaaccent
ENCODING 316
SWIDTH 319 0
DWIDTH 6 0
BBX 5 20 2 -7
BITMAP
78
38
38
30
30
70
70
70
60
60
E0
E0
F0
00
70
70
70
20
60
C0
ENDCHAR
STARTCHAR Lcaron
ENCODING 317
SWIDTH 845 0
DWIDTH 15 0
BBX 17 13 0 0
BITMAP
1F0380
0E0380
0C0100
1C0300
1C0600
1C0000
1C0000
180000
380000
380000
382000
386000
FFC000
ENDCHAR
STARTCHAR lcaron
ENCODING 318
SWIDTH 568 0
DWIDTH 11 0
BBX 11 13 2 0
BITMAP
78E0
38E0
3840
30C0
3180
7000
7000
7000
6000
6000
E000
E000
F000
ENDCHAR
STARTCHAR Ldot
ENCODING 319
SWIDTH 1216 0
DWIDTH 21 0
BBX 18 13 0 0
BITMAP
1F0000
0E0000
0C0000
1C0000
1C0000
1C0000
1C0000
1801C0
3801C0
380000
382000
386000
FFC000
ENDCHAR
STARTCHAR ldot
ENCODING 320
SWIDTH 939 0
DWIDTH 17 0
BBX 12 13 2 0
BITMAP
7800
3800
3800
3000
3000
7000
7000
7070
6070
6000
E000
E000
F000
ENDCHAR
STARTCHAR Lslash
ENCODING 321
SWIDTH 611 0
DWIDTH 11 0
BBX 11 13 0 0
BITMAP
1F00
0E00
0C00
1C00
1C00
1F00
7C00
5800
3800
3800
3820
3860
FFE0
ENDCHAR
STARTCHAR lslash
ENCODING 322
SWIDTH 319 0
DWIDTH 6 0
BBX 7 13 1 0
BITMAP
3C
1C
1C
18
18
3E
38
F8
30
70
70
70
78
ENDCHAR
STARTCHAR Nacute
ENCODING 323
SWIDTH 797 0
DWIDTH 14 0
BBX 16 17 0 0
BITMAP
0070
00C0
0180
0000
3C0F
0E06
0E04
1F04
1B0C
1388
11C8
11C8
30E8
20F8
2070
6030
F030
ENDCHAR
STARTCHAR nacute
ENCODING 324
SWIDTH 656 0
DWIDTH 12 0
BBX 10 13 2 0
BITMAP
0380
0600
0C00
0000
F180
37C0
7DC0
79C0
7180
6180
6380
E380
E3C0
ENDCHAR
STARTCHAR Ncommaaccent
ENCODING 325
SWIDTH 797 0
DWIDTH 14 0
BBX 16 20 0 -7
BITMAP
3C0F
0E06
0E04
1F04
1B0C
1388
11C8
11C8
30E8
20F8
2070
6030
F030
0000
0380
0380
0380
0100
0300
0600
ENDCHAR
STARTCHAR ncommaaccent
ENCODING 326
SWIDTH 656 0
DWIDTH 12 0
BBX 10 16 2 -7
BITMAP
F180
37C0
7DC0
79C0
7180
6180
6380
E380
E3C0
0000
0E00
0E00
0E00
0400
0C00
1800
ENDCHAR
STARTCHAR Ncaron
ENCODING 327
SWIDTH 797 0
DWIDTH 14 0
BBX 16 17 0 0
BITMAP
0460
02C0
0380
0000
3C0F
0E06
0E04
1F04
1B0C
1388
11C8
11C8
30E8
20F8
2070
6030
F030
ENDCHAR
STARTCHAR ncaron
ENCODING 328
SWIDTH 656 0
DWIDTH 12 0
BBX 10 13 2 0
BITMAP
1180
0B00
0E00
0000
F180
37C0
7DC0
79C0
7180
6180
6380
E380
E3C0
ENDCHAR
STARTCHAR napostrophe
ENCODING 329
SWIDTH 908 0
DWIDTH 17 0
BBX 14 13 3 0
BITMAP
7000
7000
2000
6000
CF18
037C
07DC
079C
0718
0618
0638
0E38
0E3C
ENDCHAR
STARTCHAR Eng
ENCODING 330
SWIDTH 797 0
DWIDTH 14 0
BBX 16 17 0 -4
BITMAP
3C0F
0E06
0E04
1F04
1B0C
1388
11C8
11C8
30E8
20F8
2078
6038
F030
0070
0660
0660
0780
ENDCHAR
STARTCHAR eng
ENCODING 331
SWIDTH 656 0
DWIDTH 12 0
BBX 10 13 2 -4
BITMAP
F180
37C0
7DC0
79C0
7180
6380
6380
E380
E300
0700
6600
6600
7800
ENDCHAR
STARTCHAR Omacron
ENCODING 332
SWIDTH 831 0
DWIDTH 15 0
BBX 14 15 2 0
BITMAP
07E0
0000
03E0
0C30
1818
301C
701C
601C
E018
E038
E038
E070
E060
71C0
1F00
ENDCHAR
STARTCHAR omacron
ENCODING 333
SWIDTH 599 0
DWIDTH 11 0
BBX 10 11 1 0
BITMAP
1F80
0000
0F80
39C0
71C0
61C0
E1C0
E180
E380
E300
7C00
ENDCHAR
STARTCHAR Obreve
ENCODING 334
SWIDTH 831 0
DWIDTH 15 0
BBX 14 17 2 0
BITMAP
0420
07C0
0380
0000
03E0
0C30
1818
301C
701C
601C
E018
E038
E038
E070
E060
71C0
1F00
ENDCHAR
STARTCHAR obreve
ENCODING 335
SWIDTH 599 0
DWIDTH 11 0
BBX 10 13 1 0
BITMAP
1080
1F00
0E00
0000
0F80
39C0
71C0
61C0
E1C0
E180
E380
E300
7C00
ENDCHAR
STARTCHAR Ohungarumlaut
ENCODING 336
SWIDTH 831 0
DWIDTH 15 0
BBX 14 17 2 0
BITMAP
01B0
0340
0480
0000
03E0
0C30
1818
301C
701C
601C
E018
E038
E038
E070
E060
71C0
1F00
ENDCHAR
STARTCHAR ohungarumlaut
ENCODING 337
SWIDTH 599 0
DWIDTH 11 0
BBX 10 13 1 0
BITMAP
06C0
0D00
1200
0000
0F80
39C0
71C0
61C0
E1C0
E180
E380
E300
7C00
ENDCHAR
STARTCHAR OE
ENCODING 338
SWIDTH 1067 0
DWIDTH 19 0
BBX 19 13 2 0
BITMAP
03DFE0
0C3860
183860
303800
703800
603080
E07F80
E07180
E07000
E07000
60E000
70E080
1FFF80
ENDCHAR
STARTCHAR oe
ENCODING 339
SWIDTH 921 0
DWIDTH 17 0
BBX 15 9 1 0
BITMAP
0F9E
31A6
71C6
61C6
E1CC
E1F8
E180
E3C2
7CFC
ENDCHAR
STARTCHAR Racute
ENCODING 340
SWIDTH 711 0
DWIDTH 13 0
BBX 12 17 1 0
BITMAP
01C0
0300
0600
0000
3FE0
0C70
1C70
1C70
1C60
18E0
1F80
3B80
3980
39C0
30C0
70E0
F8F0
ENDCHAR
STARTCHAR racute
ENCODING 341
SWIDTH 496 0
DWIDTH 9 0
BBX 9 13 2 0
BITMAP
0700
0C00
1800
0000
F180
3700
7C00
7800
7000
6000
6000
E000
E000
ENDCHAR
STARTCHAR Rcommaaccent
ENCODING 342
SWIDTH 711 0
DWIDTH 13 0
BBX 12 20 1 -7
BITMAP
3FE0
0C70
1C70
1C70
1C60
18E0
1F80
3B80
3980
39C0
30C0
70E0
F8F0
0000
0700
0700
0700
0200
0600
0C00
ENDCHAR
STARTCHAR rcommaaccent
ENCODING 343
SWIDTH 496 0
DWIDTH 9 0
BBX 9 16 2 -7
BITMAP
F180
3700
7C00
7800
7000
6000
6000
E000
E000
0000
7000
7000
7000
2000
6000
C000
ENDCHAR
STARTCHAR Rcaron
ENCODING 344
SWIDTH 711 0
DWIDTH 13 0
BBX 12 17 1 0
BITMAP
08C0
0580
0700
0000
3FE0
0C70
1C70
1C70
1C60
18E0
1F80
3B80
3980
39C0
30C0
70E0
F8F0
ENDCHAR
STARTCHAR rcaron
ENCODING 345
SWIDTH 496 0
DWIDTH 9 0
BBX 9 13 2 0
BITMAP
2300
1600
1C00
0000
F180
3700
7C00
7800
7000
6000
6000
E000
E000
ENDCHAR
STARTCHAR Sacute
ENCODING 346
SWIDTH 587 0
DWIDTH 11 0
BBX 10 17 2 0
BITMAP
0380
0600
0C00
0000
0FC0
18C0
38C0
3000
3800
3C00
1F00
0700
0380
0380
C380
C700
FC00
ENDCHAR
STARTCHAR sacute
ENCODING 347
SWIDTH 479 0
DWIDTH 9 0
BBX 8 13 1 0
BITMAP
07
0C
18
00
1F
31
31
38
1C
0E
C6
CE
FC
ENDCHAR
STARTCHAR Scircumflex
ENCODING 348
SWIDTH 587 0
DWIDTH 11 0
BBX 10 17 2 0
BITMAP
0700
0F00
1980
0000
0FC0
18C0
38C0
3000
3800
3C00
1F00
0700
0380
0380
C380
C700
FC00
ENDCHAR
STARTCHAR scircumflex
ENCODING 349
SWIDTH 479 0
DWIDTH 9 0
BBX 8 13 1 0
BITMAP
0E
1E
33
00
1F
31
31
38
1C
0E
C6
CE
FC
ENDCHAR
STARTCHAR Scedilla
ENCODING 350
SWIDTH 587 0
DWIDTH 11 0
BBX 10 16 2 -3
BITMAP
0FC0
18C0
38C0
3000
3800
3C00
1F00
0700
0380
0380
C380
C700
FC00
0C00
0400
1C00
ENDCHAR
STARTCHAR scedilla
ENCODING 351
SWIDTH 479 0
DWIDTH 9 0
BBX 8 12 1 -3
BITMAP
1F
31
31
38
1C
0E
C6
CE
FC
18
08
38
ENDCHAR
STARTCHAR Scaron
ENCODING 352
SWIDTH 587 0
DWIDTH 11 0
BBX 10 17 2 0
BITMAP
08C0
0580
0700
0000
0FC0
18C0
38C0
3000
3800
3C00
1F00
0700
0380
0380
C380
C700
FC00
ENDCHAR
STARTCHAR scaron
ENCODING 353
SWIDTH 479 0
DWIDTH 9 0
BBX 9 13 1 0
BITMAP
1180
0B00
0E00
0000
1F00
3100
3100
3800
1C00
0E00
C600
CE00
FC00
ENDCHAR
STARTCHAR Tcommaaccent
ENCODING 354
SWIDTH 716 0
DWIDTH 13 0
BBX 13 16 2 -3
BITMAP
FFF8
C718
8718
0600
0E00
0E00
0E00
0E00
0C00
1C00
1C00
1C00
7E00
0C00
0400
1C00
ENDCHAR
STARTCHAR tcommaaccent
ENCODING 355
SWIDTH 375 0
DWIDTH 7 0
BBX 6 15 2 -3
BITMAP
30
30
30
FC
70
60
60
60
E0
E0
E0
70
60
20
E0
ENDCHAR
STARTCHAR Tcaron
ENCODING 356
SWIDTH 716 0
DWIDTH 13 0
BBX 13 17 2 0
BITMAP
08C0
0580
0700
0000
FFF8
C718
8718
0600
0E00
0E00
0E00
0E00
0C00
1C00
1C00
1C00
7E00
ENDCHAR
STARTCHAR tcaron
ENCODING 357
SWIDTH 621 0
DWIDTH 12 0
BBX 12 13 2 0
BITMAP
0070
3070
3020
3060
FCC0
7000
6000
6000
6000
E000
E000
E000
7000
ENDCHAR
STARTCHAR Tbar
ENCODING 358
SWIDTH 716 0
DWIDTH 13 0
BBX 13 13 2 0
BITMAP
FFF8
C718
8718
0600
0E00
0E00
1FE0
0E00
0C00
1C00
1C00
1C00
7E00
ENDCHAR
STARTCHAR tbar
ENCODING 359
SWIDTH 375 0
DWIDTH 7 0
BBX 8 12 1 0
BITMAP
18
18
18
7E
38
30
30
FF
70
70
70
38
ENDCHAR
STARTCHAR Utilde
ENCODING 360
SWIDTH 775 0
DWIDTH 14 0
BBX 13 16 3 0
BITMAP
0E80
1700
0000
FC78
7030
7020
7020
7020
6020
E020
E040
E040
E040
E080
7180
3E00
ENDCHAR
STARTCHAR utilde
ENCODING 361
SWIDTH 655 0
DWIDTH 12 0
BBX 10 12 2 0
BITMAP
1D00
2E00
0000
F3C0
71C0
7180
6180
6380
E780
EB80
FB00
E3C0
ENDCHAR
STARTCHAR Umacron
ENCODING 362
SWIDTH 775 0
DWIDTH 14 0
BBX 13 15 3 0
BITMAP
1F80
0000
FC78
7030
7020
7020
7020
6020
E020
E040
E040
E040
E080
7180
3E00
ENDCHAR
STARTCHAR umacron
ENCODING 363
SWIDTH 655 0
DWIDTH 12 0
BBX 10 11 2 0
BITMAP
3F00
0000
F3C0
71C0
7180
6180
6380
E780
EB80
FB00
E3C0
ENDCHAR
STARTCHAR Ubreve
ENCODING 364
SWIDTH 775 0
DWIDTH 14 0
BBX 13 17 3 0
BITMAP
1080
1F00
0E00
0000
FC78
7030
7020
7020
7020
6020
E020
E040
E040
E040
E080
7180
3E00
ENDCHAR
STARTCHAR ubreve
ENCODING 365
SWIDTH 655 0
DWIDTH 12 0
BBX 10 13 2 0
BITMAP
2100
3E00
1C00
0000
F3C0
71C0
7180
6180
6380
E780
EB80
FB00
E3C0
ENDCHAR
STARTCHAR Uring
ENCODING 366
SWIDTH 775 0
DWIDTH 14 0
BBX 13 17 3 0
BITMAP
0E00
0A00
0E00
0000
FC78
7030
7020
7020
7020
6020
E020
E040
E040
E040
E080
7180
3E00
ENDCHAR
STARTCHAR uring
ENCODING 367
SWIDTH 655 0
DWIDTH 12 0
BBX 10 13 2 0
BITMAP
0E00
0A00
0E00
0000
F3C0
71C0
7180
6180
6380
E780
EB80
FB00
E3C0
ENDCHAR
STARTCHAR Uhungarumlaut
ENCODING 368
SWIDTH 775 0
DWIDTH 14 0
BBX 13 17 3 0
BITMAP
06C0
0D00
1200
0000
FC78
7030
7020
7020
7020
6020
E020
E040
E040
E040
E080
7180
3E00
ENDCHAR
STARTCHAR uhungarumlaut
ENCODING 369
SWIDTH 655 0
DWIDTH 12 0
BBX 10 13 2 0
BITMAP
06C0
0D00
1200
0000
F3C0
71C0
7180
6180
6380
E780
EB80
FB00
E3C0
ENDCHAR
STARTCHAR Uogonek
ENCODING 370
SWIDTH 775 0
DWIDTH 14 0
BBX 13 16 3 -3
BITMAP
FC78
7030
7020
7020
7020
6020
E020
E040
E040
E040
E080
7180
3E00
0800
1000
1C00
ENDCHAR
STARTCHAR uogonek
ENCODING 371
SWIDTH 655 0
DWIDTH 12 0
BBX 10 12 2 -3
BITMAP
F3C0
71C0
7180
6180
6380
E780
EB80
FB00
E3C0
0800
1000
1C00
ENDCHAR
STARTCHAR Wcircumflex
ENCODING 372
SWIDTH 922 0
DWIDTH 17 0
BBX 17 17 2 0
BITMAP
01C000
03C000
066000
000000
F8C380
70C100
71C200
71C200
72C400
72C400
74C800
74D800
78D000
38F000
30E000
30C000
20C000
ENDCHAR
STARTCHAR wcircumflex
ENCODING 373
SWIDTH 822 0
DWIDTH 15 0
BBX 15 13 1 0
BITMAP
01C0
03C0
0660
0000
E18E
7186
318C
33C8
3FD8
3CF0
38E0
18C0
1080
ENDCHAR
STARTCHAR Ycircumflex
ENCODING 374
SWIDTH 669 0
DWIDTH 12 0
BBX 12 17 3 0
BITMAP
0E00
1E00
3300
0000
F870
7060
7040
3880
3900
1A00
1E00
1C00
1C00
1C00
1800
3800
7E00
ENDCHAR
STARTCHAR ycircumflex
ENCODING 375
SWIDTH 586 0
DWIDTH 11 0
BBX 12 16 0 -3
BITMAP
0380
0780
0CC0
0000
3870
1C30
1C20
0C60
0CC0
0F80
0F00
0600
0400
0800
1000
F000
ENDCHAR
STARTCHAR Ydieresis
ENCODING 376
SWIDTH 669 0
DWIDTH 12 0
BBX 12 15 3 0
BITMAP
1980
0000
F870
7060
7040
3880
3900
1A00
1E00
1C00
1C00
1C00
1800
3800
7E00
ENDCHAR
STARTCHAR Zacute
ENCODING 377
SWIDTH 684 0
DWIDTH 12 0
BBX 12 17 1 0
BITMAP
00E0
0180
0300
0000
1FF0
10E0
11E0
01C0
0380
0700
0F00
0E00
1C00
3800
7040
70C0
FFC0
ENDCHAR
STARTCHAR zacute
ENCODING 378
SWIDTH 567 0
DWIDTH 10 0
BBX 10 13 1 0
BITMAP
0380
0600
0C00
0000
3FC0
2380
2700
0E00
0E00
1C00
3880
7180
FF80
ENDCHAR
STARTCHAR Zdotaccent
ENCODING 379
SWIDTH 684 0
DWIDTH 12 0
BBX 12 16 1 0
BITMAP
0380
0380
0000
1FF0
10E0
11E0
01C0
0380
0700
0F00
0E00
1C00
3800
7040
70C0
FFC0
ENDCHAR
STARTCHAR zdotaccent
ENCODING 380
SWIDTH 567 0
DWIDTH 10 0
BBX 10 12 1 0
BITMAP
0E00
0E00
0000
3FC0
2380
2700
0E00
0E00
1C00
3880
7180
FF80
ENDCHAR
STARTCHAR Zcaron
ENCODING 381
SWIDTH 684 0
DWIDTH 12 0
BBX 12 17 1 0
BITMAP
0460
02C0
0380
0000
1FF0
10E0
11E0
01C0
0380
0700
0F00
0E00
1C00
3800
7040
70C0
FFC0
ENDCHAR
STARTCHAR zcaron
ENCODING 382
SWIDTH 567 0
DWIDTH 10 0
BBX 10 13 1 0
BITMAP
08C0
0580
0700
0000
3FC0
2380
2700
0E00
0E00
1C00
3880
7180
FF80
ENDCHAR
STARTCHAR uni0186
ENCODING 390
SWIDTH 740 0
DWIDTH 13 0
BBX 13 13 2 0
BITMAP
0FC0
30F0
0070
0038
0038
0038
0038
0030
0070
4060
C0C0
C180
FE00
ENDCHAR
STARTCHAR uni0189
ENCODING 393
SWIDTH 822 0
DWIDTH 15 0
BBX 15 13 0 0
BITMAP
3FF8
0E1C
0C0E
1C0E
1C0E
1C0E
7F8E
180E
381C
381C
3838
78F0
FFC0
ENDCHAR
STARTCHAR uni018E
ENCODING 398
SWIDTH 630 0
DWIDTH 11 0
BBX 12 13 1 0
BITMAP
3FF0
30E0
21C0
01C0
01C0
11C0
1F80
2380
0380
0380
0380
C300
FFC0
ENDCHAR
STARTCHAR florin
ENCODING 402
SWIDTH 636 0
DWIDTH 12 0
BBX 9 16 4 -3
BITMAP
0780
0D80
1980
3800
3800
3000
FC00
3000
7000
7000
7000
6000
6000
E000
E000
E000
ENDCHAR
STARTCHAR uni0197
ENCODING 407
SWIDTH 372 0
DWIDTH 7 0
BBX 8 13 1 0
BITMAP
3F
0E
1C
1C
1C
1C
FF
38
38
38
38
70
FC
ENDCHAR
STARTCHAR uni019A
ENCODING 410
SWIDTH 319 0
DWIDTH 6 0
BBX 8 13 1 0
BITMAP
3C
1C
1C
18
18
38
FF
38
30
30
70
70
78
ENDCHAR
STARTCHAR uni019D
ENCODING 413
SWIDTH 797 0
DWIDTH 14 0
BBX 19 17 -3 -4
BITMAP
0781E0
01C0C0
01C080
03E080
036180
027100
023900
023900
061D00
071F00
070E00
070600
060600
0E0000
CC0000
CC0000
F00000
ENDCHAR
STARTCHAR uni019F
ENCODING 415
SWIDTH 831 0
DWIDTH 15 0
BBX 14 13 2 0
BITMAP
03E0
0C30
1818
301C
701C
601C
FFFC
E038
E038
E070
E060
71C0
1F00
ENDCHAR
STARTCHAR Ohorn
ENCODING 416
SWIDTH 831 0
DWIDTH 15 0
BBX 17 13 2 0
BITMAP
03E380
0C3380
181900
301F00
701E00
601C00
E01800
E03800
E03800
E07000
E06000
71C000
1F0000
ENDCHAR
STARTCHAR ohorn
ENCODING 417
SWIDTH 599 0
DWIDTH 11 0
BBX 13 9 1 0
BITMAP
0FB8
39F8
71D0
61F0
E1E0
E180
E380
E300
7C00
ENDCHAR
STARTCHAR Uhorn
ENCODING 431
SWIDTH 775 0
DWIDTH 14 0
BBX 16 13 3 0
BITMAP
FC7F
7037
7022
7026
702C
6020
E020
E040
E040
E040
E080
7180
3E00
ENDCHAR
STARTCHAR uhorn
ENCODING 432
SWIDTH 655 0
DWIDTH 12 0
BBX 13 9 2 0
BITMAP
F3F8
71F8
7190
61B0
63E0
E780
EB80
FB00
E3C0
ENDCHAR
STARTCHAR uni01B5
ENCODING 437
SWIDTH 684 0
DWIDTH 12 0
BBX 12 13 1 0
BITMAP
1FF0
10E0
11E0
01C0
0380
0700
3FC0
0E00
1C00
3800
7040
70C0
FFC0
ENDCHAR
STARTCHAR uni01B6
ENCODING 438
SWIDTH 567 0
DWIDTH 10 0
BBX 10 9 1 0
BITMAP
3FC0
2380
2700
0E00
7F80
1C00
3880
7180
FF80
ENDCHAR
STARTCHAR uni01BB
ENCODING 443
SWIDTH 636 0
DWIDTH 11 0
BBX 11 13 1 0
BITMAP
0F80
11E0
30E0
00E0
00E0
01C0
FFE0
0C00
1000
2000
6000
FF80
FF80
ENDCHAR
STARTCHAR uni01BC
ENCODING 444
SWIDTH 636 0
DWIDTH 11 0
BBX 11 13 2 0
BITMAP
1FE0
1FC0
2000
2000
2000
3C00
0700
0380
0380
0380
C300
C700
FC00
ENDCHAR
STARTCHAR uni01C0
ENCODING 448
SWIDTH 253 0
DWIDTH 5 0
BBX 5 16 1 -3
BITMAP
18
18
10
10
10
30
30
20
20
60
60
40
40
40
C0
C0
ENDCHAR
STARTCHAR uni01C2
ENCODING 450
SWIDTH 636 0
DWIDTH 11 0
BBX 11 16 1 -3
BITMAP
0300
0300
0200
0200
0200
0600
7FE0
0400
0400
FFC0
0C00
0800
0800
0800
1800
1800
ENDCHAR
STARTCHAR uni01C3
ENCODING 451
SWIDTH 265 0
DWIDTH 5 0
BBX 5 13 1 0
BITMAP
38
38
38
30
30
30
20
60
60
00
00
E0
E0
ENDCHAR
STARTCHAR uni01CD
ENCODING 461
SWIDTH 765 0
DWIDTH 14 0
BBX 14 17 0 0
BITMAP
0230
0160
01C0
0000
00C0
00E0
01E0
01E0
0260
0460
0470
0870
1FF0
1030
2038
6038
F07C
ENDCHAR
STARTCHAR uni01CE
ENCODING 462
SWIDTH 634 0
DWIDTH 11 0
BBX 11 13 1 0
BITMAP
08C0
0580
0700
0000
07E0
18E0
30C0
61C0
61C0
E3C0
E5C0
F980
73E0
ENDCHAR
STARTCHAR uni01CF
ENCODING 463
SWIDTH 372 0
DWIDTH 7 0
BBX 8 17 1 0
BITMAP
23
16
1C
00
3F
0E
1C
1C
1C
1C
18
38
38
38
38
70
FC
ENDCHAR
STARTCHAR uni01D0
ENCODING 464
SWIDTH 319 0
DWIDTH 6 0
BBX 6 13 1 0
BITMAP
8C
58
70
00
F8
38
30
70
70
70
60
E0
F8
ENDCHAR
STARTCHAR uni01D1
ENCODING 465
SWIDTH 831 0
DWIDTH 15 0
BBX 14 17 2 0
BITMAP
0460
02C0
0380
0000
03E0
0C30
1818
301C
701C
601C
E018
E038
E038
E070
E060
71C0
1F00
ENDCHAR
STARTCHAR uni01D2
ENCODING 466
SWIDTH 599 0
DWIDTH 11 0
BBX 10 13 1 0
BITMAP
1180
0B00
0E00
0000
0F80
39C0
71C0
61C0
E1C0
E180
E380
E300
7C00
ENDCHAR
STARTCHAR uni01D3
ENCODING 467
SWIDTH 775 0
DWIDTH 14 0
BBX 13 17 3 0
BITMAP
1180
0B00
0E00
0000
FC78
7030
7020
7020
7020
6020
E020
E040
E040
E040
E080
7180
3E00
ENDCHAR
STARTCHAR uni01D4
ENCODING 468
SWIDTH 655 0
DWIDTH 12 0
BBX 10 13 2 0
BITMAP
2300
1600
1C00
0000
F3C0
71C0
7180
6180
6380
E780
EB80
FB00
E3C0
ENDCHAR
STARTCHAR uni01D5
ENCODING 469
SWIDTH 775 0
DWIDTH 14 0
BBX 13 17 3 0
BITMAP
1F80
0000
0CC0
0000
FC78
7030
7020
7020
7020
6020
E020
E040
E040
E040
E080
7180
3E00
ENDCHAR
STARTCHAR uni01D6
ENCODING 470
SWIDTH 655 0
DWIDTH 12 0
BBX 10 13 2 0
BITMAP
3F00
0000
0CC0
0000
F3C0
71C0
7180
6180
6380
E780
EB80
FB00
E3C0
ENDCHAR
STARTCHAR uni01D7
ENCODING 471
SWIDTH 775 0
DWIDTH 14 0
BBX 13 19 3 0
BITMAP
01C0
0300
0600
0000
0CC0
0000
FC78
7030
7020
7020
7020
6020
E020
E040
E040
E040
E080
7180
3E00
ENDCHAR
STARTCHAR uni01D8
ENCODING 472
SWIDTH 655 0
DWIDTH 12 0
BBX 10 15 2 0
BITMAP
0380
0600
0C00
0000
0CC0
0000
F3C0
71C0
7180
6180
6380
E780
EB80
FB00
E3C0
ENDCHAR
STARTCHAR uni01D9
ENCODING 473
SWIDTH 775 0
DWIDTH 14 0
BBX 13 19 3 0
BITMAP
08C0
0580
0700
0000
0CC0
0000
FC78
7030
7020
7020
7020
6020
E020
E040
E040
E040
E080
7180
3E00
ENDCHAR
STARTCHAR uni01DA
ENCODING 474
SWIDTH 655 0
DWIDTH 12 0
BBX 10 15 2 0
BITMAP
1180
0B00
0E00
0000
0CC0
0000
F3C0
71C0
7180
6180
6380
E780
EB80
FB00
E3C0
ENDCHAR
STARTCHAR uni01DB
ENCODING 475
SWIDTH 775 0
DWIDTH 14 0
BBX 13 19 3 0
BITMAP
0E00
0600
0300
0000
0CC0
0000
FC78
7030
7020
7020
7020
6020
E020
E040
E040
E040
E080
7180
3E00
ENDCHAR
STARTCHAR uni01DC
ENCODING 476
SWIDTH 655 0
DWIDTH 12 0
BBX 10 15 2 0
BITMAP
1C00
0C00
0600
0000
0CC0
0000
F3C0
71C0
7180
6180
6380
E780
EB80
FB00
E3C0
ENDCHAR
STARTCHAR uni01DD
ENCODING 477
SWIDTH 548 0
DWIDTH 10 0
BBX 9 9 1 0
BITMAP
3F00
C380
0380
1F80
7380
6300
E300
E600
7800
ENDCHAR
STARTCHAR uni01DE
ENCODING 478
SWIDTH 765 0
DWIDTH 14 0
BBX 14 17 0 0
BITMAP
03F0
0000
0198
0000
00C0
00E0
01E0
01E0
0260
0460
0470
0870
1FF0
1030
2038
6038
F07C
ENDCHAR
STARTCHAR uni01DF
ENCODING 479
SWIDTH 634 0
DWIDTH 11 0
BBX 11 13 1 0
BITMAP
0FC0
0000
0660
0000
07E0
18E0
30C0
61C0
61C0
E3C0
E5C0
F980
73E0
ENDCHAR
STARTCHAR uni01E0
ENCODING 480
SWIDTH 765 0
DWIDTH 14 0
BBX 14 18 0 0
BITMAP
07E0
0000
01C0
01C0
0000
00C0
00E0
01E0
01E0
0260
0460
0470
0870
1FF0
1030
2038
6038
F07C
ENDCHAR
STARTCHAR uni01E1
ENCODING 481
SWIDTH 634 0
DWIDTH 11 0
BBX 11 14 1 0
BITMAP
0FC0
0000
0700
0700
0000
07E0
18E0
30C0
61C0
61C0
E3C0
E5C0
F980
73E0
ENDCHAR
STARTCHAR uni01E2
ENCODING 482
SWIDTH 958 0
DWIDTH 17 0
BBX 19 15 0 0
BITMAP
007E00
000000
003FE0
007860
007800
00B800
013080
023F80
067180
047000
0FF000
106000
206000
60E080
E1FF80
ENDCHAR
STARTCHAR uni01E3
ENCODING 483
SWIDTH 905 0
DWIDTH 16 0
BBX 15 11 1 0
BITMAP
03F0
0000
0FDC
11EE
31C6
618E
619C
E3F0
E580
E9C6
70F8
ENDCHAR
STARTCHAR uni01E4
ENCODING 484
SWIDTH 780 0
DWIDTH 14 0
BBX 15 13 2 0
BITMAP
03F8
0E18
1818
3000
7000
6000
E000
E1F8
E070
E1FE
60E0
70E0
1F80
ENDCHAR
STARTCHAR uni01E5
ENCODING 485
SWIDTH 628 0
DWIDTH 11 0
BBX 11 12 1 -3
BITMAP
07E0
18E0
30E0
30C0
71C0
63C0
67C0
7D80
7380
FFE0
C300
7C00
ENDCHAR
STARTCHAR Gcaron
ENCODING 486
SWIDTH 780 0
DWIDTH 14 0
BBX 13 17 2 0
BITMAP
0460
02C0
0380
0000
03F8
0E18
1818
3000
7000
6000
E000
E1F8
E070
E0E0
60E0
70E0
1F80
ENDCHAR
STARTCHAR gcaron
ENCODING 487
SWIDTH 628 0
DWIDTH 11 0
BBX 11 16 1 -3
BITMAP
08C0
0580
0700
0000
07E0
18E0
30E0
30C0
71C0
63C0
67C0
7D80
7380
8380
C300
7C00
ENDCHAR
STARTCHAR uni01E8
ENCODING 488
SWIDTH 746 0
DWIDTH 13 0
BBX 14 17 1 0
BITMAP
08C0
0580
0700
0000
3F3C
0E10
0C20
1C40
1D80
1A00
1F00
1B80
3BC0
39C0
30E0
70F0
F9F8
ENDCHAR
STARTCHAR uni01E9
ENCODING 489
SWIDTH 626 0
DWIDTH 11 0
BBX 10 17 2 0
BITMAP
4600
2C00
3800
0000
7800
3800
3800
3800
31C0
31C0
7380
7E00
7C00
6E00
6700
E380
E3C0
ENDCHAR
STARTCHAR uni01EA
ENCODING 490
SWIDTH 831 0
DWIDTH 15 0
BBX 14 16 2 -3
BITMAP
03E0
0C30
1818
301C
701C
601C
E018
E038
E038
E070
E060
71C0
1F00
0200
0400
0700
ENDCHAR
STARTCHAR uni01EB
ENCODING 491
SWIDTH 599 0
DWIDTH 11 0
BBX 10 12 1 -3
BITMAP
0F80
39C0
71C0
61C0
E1C0
E180
E380
E300
7C00
0800
1000
1C00
ENDCHAR
STARTCHAR uni01EC
ENCODING 492
SWIDTH 831 0
DWIDTH 15 0
BBX 14 18 2 -3
BITMAP
07E0
0000
03E0
0C30
1818
301C
701C
601C
E018
E038
E038
E070
E060
71C0
1F00
0200
0400
0700
ENDCHAR
STARTCHAR uni01ED
ENCODING 493
SWIDTH 599 0
DWIDTH 11 0
BBX 10 14 1 -3
BITMAP
1F80
0000
0F80
39C0
71C0
61C0
E1C0
E180
E380
E300
7C00
0800
1000
1C00
ENDCHAR
STARTCHAR uni01F0
ENCODING 496
SWIDTH 381 0
DWIDTH 7 0
BBX 10 17 -1 -4
BITMAP
08C0
0580
0700
0000
0780
0380
0380
0300
0700
0700
0700
0700
0600
0E00
CC00
CC00
F000
ENDCHAR
STARTCHAR uni01F4
ENCODING 500
SWIDTH 780 0
DWIDTH 14 0
BBX 13 17 2 0
BITMAP
00E0
0180
0300
0000
03F8
0E18
1818
3000
7000
6000
E000
E1F8
E070
E0E0
60E0
70E0
1F80
ENDCHAR
STARTCHAR uni01F5
ENCODING 501
SWIDTH 628 0
DWIDTH 11 0
BBX 11 16 1 -3
BITMAP
01C0
0300
0600
0000
07E0
18E0
30E0
30C0
71C0
63C0
67C0
7D80
7380
8380
C300
7C00
ENDCHAR
STARTCHAR uni01F8
ENCODING 504
SWIDTH 797 0
DWIDTH 14 0
BBX 16 17 0 0
BITMAP
0700
0300
0180
0000
3C0F
0E06
0E04
1F04
1B0C
1388
11C8
11C8
30E8
20F8
2070
6030
F030
ENDCHAR
STARTCHAR uni01F9
ENCODING 505
SWIDTH 656 0
DWIDTH 12 0
BBX 10 13 2 0
BITMAP
1C00
0C00
0600
0000
F180
37C0
7DC0
79C0
7180
6180
6380
E380
E3C0
ENDCHAR
STARTCHAR Aringacute
ENCODING 506
SWIDTH 765 0
DWIDTH 14 0
BBX 14 21 0 0
BITMAP
0038
0060
00C0
0000
0070
0050
0070
0000
00C0
00E0
01E0
01E0
0260
0460
0470
0870
1FF0
1030
2038
6038
F07C
ENDCHAR
STARTCHAR aringacute
ENCODING 507
SWIDTH 634 0
DWIDTH 11 0
BBX 11 17 1 0
BITMAP
01C0
0300
0600
0000
0380
0280
0380
0000
07E0
18E0
30C0
61C0
61C0
E3C0
E5C0
F980
73E0
ENDCHAR
STARTCHAR AEacute
ENCODING 508
SWIDTH 958 0
DWIDTH 17 0
BBX 19 17 0 0
BITMAP
000E00
001800
003000
000000
003FE0
007860
007800
00B800
013080
023F80
067180
047000
0FF000
106000
206000
60E080
E1FF80
ENDCHAR
STARTCHAR aeacute
ENCODING 509
SWIDTH 905 0
DWIDTH 16 0
BBX 15 13 1 0
BITMAP
0070
00C0
0180
0000
0FDC
11EE
31C6
618E
619C
E3F0
E580
E9C6
70F8
ENDCHAR
STARTCHAR Oslashacute
ENCODING 510
SWIDTH 831 0
DWIDTH 15 0
BBX 16 17 1 0
BITMAP
0038
0060
00C0
0000
01F3
061C
0C0C
181E
382E
30CE
718E
731C
761C
7818
7030
3860
CF80
ENDCHAR
STARTCHAR oslashacute
ENCODING 511
SWIDTH 599 0
DWIDTH 11 0
BBX 12 13 1 0
BITMAP
01C0
0300
0600
0000
07B0
18C0
30E0
73E0
74C0
78C0
7180
7300
FE00
ENDCHAR
STARTCHAR Scommaaccent
ENCODING 536
SWIDTH 587 0
DWIDTH 11 0
BBX 10 20 2 -7
BITMAP
0FC0
18C0
38C0
3000
3800
3C00
1F00
0700
0380
0380
C380
C700
FC00
0000
1C00
1C00
1C00
0800
1800
3000
ENDCHAR
STARTCHAR scommaaccent
ENCODING 537
SWIDTH 479 0
DWIDTH 9 0
BBX 8 16 1 -7
BITMAP
1F
31
31
38
1C
0E
C6
CE
FC
00
38
38
38
10
30
60
ENDCHAR
STARTCHAR Tcommaaccent
ENCODING 538
SWIDTH 716 0
DWIDTH 13 0
BBX 13 20 2 -7
BITMAP
FFF8
C718
8718
0600
0E00
0E00
0E00
0E00
0C00
1C00
1C00
1C00
7E00
0000
0E00
0E00
0E00
0400
0C00
1800
ENDCHAR
STARTCHAR tcommaaccent
ENCODING 539
SWIDTH 375 0
DWIDTH 7 0
BBX 6 19 2 -7
BITMAP
30
30
30
FC
70
60
60
60
E0
E0
E0
70
00
70
70
70
20
60
C0
ENDCHAR
STARTCHAR uni021E
ENCODING 542
SWIDTH 827 0
DWIDTH 15 0
BBX 16 17 1 0
BITMAP
0230
0160
01C0
0000
3F3F
0E0E
1C1C
1C1C
1C1C
1C1C
1FF8
3838
3838
3838
3838
7070
FCFC
ENDCHAR
STARTCHAR uni021F
ENCODING 543
SWIDTH 656 0
DWIDTH 12 0
BBX 10 17 2 0
BITMAP
4600
2C00
3800
0000
7800
3800
3800
3800
3180
37C0
75C0
79C0
7180
6180
6380
E380
E3C0
ENDCHAR
STARTCHAR uni0226
ENCODING 550
SWIDTH 765 0
DWIDTH 14 0
BBX 14 16 0 0
BITMAP
01C0
01C0
0000
00C0
00E0
01E0
01E0
0260
0460
0470
0870
1FF0
1030
2038
6038
F07C
ENDCHAR
STARTCHAR uni0227
ENCODING 551
SWIDTH 634 0
DWIDTH 11 0
BBX 11 12 1 0
BITMAP
0700
0700
0000
07E0
18E0
30C0
61C0
61C0
E3C0
E5C0
F980
73E0
ENDCHAR
STARTCHAR uni0228
ENCODING 552
SWIDTH 630 0
DWIDTH 11 0
BBX 12 16 1 -3
BITMAP
3FF0
0C30
1C00
1C00
1C00
1C40
1F80
3880
3800
3800
3840
70C0
FFC0
0C00
0400
1C00
ENDCHAR
STARTCHAR uni0229
ENCODING 553
SWIDTH 548 0
DWIDTH 10 0
BBX 9 12 1 -3
BITMAP
0F00
3380
6380
6300
E700
FC00
E000
E180
7E00
1800
0800
3800
ENDCHAR
STARTCHAR uni022A
ENCODING 554
SWIDTH 831 0
DWIDTH 15 0
BBX 14 17 2 0
BITMAP
07E0
0000
0660
0000
03E0
0C30
1818
301C
701C
601C
E018
E038
E038
E070
E060
71C0
1F00
ENDCHAR
STARTCHAR uni022B
ENCODING 555
SWIDTH 599 0
DWIDTH 11 0
BBX 10 13 1 0
BITMAP
1F80
0000
0CC0
0000
0F80
39C0
71C0
61C0
E1C0
E180
E380
E300
7C00
ENDCHAR
STARTCHAR uni022C
ENCODING 556
SWIDTH 831 0
DWIDTH 15 0
BBX 14 18 2 0
BITMAP
07E0
0000
01D0
02E0
0000
03E0
0C30
1818
301C
701C
601C
E018
E038
E038
E070
E060
71C0
1F00
ENDCHAR
STARTCHAR uni022D
ENCODING 557
SWIDTH 599 0
DWIDTH 11 0
BBX 10 14 1 0
BITMAP
1F80
0000
0740
0B80
0000
0F80
39C0
71C0
61C0
E1C0
E180
E380
E300
7C00
ENDCHAR
STARTCHAR uni022E
ENCODING 558
SWIDTH 831 0
DWIDTH 15 0
BBX 14 16 2 0
BITMAP
0380
0380
0000
03E0
0C30
1818
301C
701C
601C
E018
E038
E038
E070
E060
71C0
1F00
ENDCHAR
STARTCHAR uni022F
ENCODING 559
SWIDTH 599 0
DWIDTH 11 0
BBX 10 12 1 0
BITMAP
0E00
0E00
0000
0F80
39C0
71C0
61C0
E1C0
E180
E380
E300
7C00
ENDCHAR
STARTCHAR uni0230
ENCODING 560
SWIDTH 831 0
DWIDTH 15 0
BBX 14 18 2 0
BITMAP
07E0
0000
0380
0380
0000
03E0
0C30
1818
301C
701C
601C
E018
E038
E038
E070
E060
71C0
1F00
ENDCHAR
STARTCHAR uni0231
ENCODING 561
SWIDTH 599 0
DWIDTH 11 0
BBX 10 14 1 0
BITMAP
1F80
0000
0E00
0E00
0000
0F80
39C0
71C0
61C0
E1C0
E180
E380
E300
7C00
ENDCHAR
STARTCHAR uni0232
ENCODING 562
SWIDTH 669 0
DWIDTH 12 0
BBX 12 15 3 0
BITMAP
3F00
0000
F870
7060
7040
3880
3900
1A00
1E00
1C00
1C00
1C00
1800
3800
7E00
ENDCHAR
STARTCHAR uni0233
ENCODING 563
SWIDTH 586 0
DWIDTH 11 0
BBX 12 14 0 -3
BITMAP
0FC0
0000
3870
1C30
1C20
0C60
0CC0
0F80
0F00
0600
0400
0800
1000
F000
ENDCHAR
STARTCHAR uni0250
ENCODING 592
SWIDTH 634 0
DWIDTH 11 0
BBX 11 9 1 0
BITMAP
F9C0
33E0
74E0
78E0
70C0
70C0
6180
E300
FC00
ENDCHAR
STARTCHAR uni0259
ENCODING 601
SWIDTH 548 0
DWIDTH 10 0
BBX 9 9 1 0
BITMAP
3F00
C380
0380
1F80
7380
6300
E300
E600
7800
ENDCHAR
STARTCHAR uni025F
ENCODING 607
SWIDTH 415 0
DWIDTH 7 0
BBX 10 17 1 -8
BITMAP
01C0
01C0
0180
0180
0380
0380
0380
0300
0700
0700
0700
3F80
0600
0E00
CC00
CC00
F800
ENDCHAR
STARTCHAR uni0265
ENCODING 613
SWIDTH 656 0
DWIDTH 12 0
BBX 10 13 2 -4
BITMAP
F1C0
71C0
7180
6180
6380
E780
EB80
FB00
6300
0700
0700
0700
0780
ENDCHAR
STARTCHAR uni0275
ENCODING 629
SWIDTH 599 0
DWIDTH 11 0
BBX 10 9 1 0
BITMAP
0F80
39C0
71C0
61C0
FFC0
E180
E380
E300
7C00
ENDCHAR
STARTCHAR uni0279
ENCODING 633
SWIDTH 496 0
DWIDTH 9 0
BBX 9 9 2 0
BITMAP
0380
0380
0300
0300
0700
0F00
1F00
7600
C780
ENDCHAR
STARTCHAR uni0287
ENCODING 647
SWIDTH 375 0
DWIDTH 7 0
BBX 6 12 2 0
BITMAP
38
1C
1C
1C
18
18
18
38
FC
30
30
30
ENDCHAR
STARTCHAR uni0289
ENCODING 649
SWIDTH 655 0
DWIDTH 12 0
BBX 10 9 2 0
BITMAP
F3C0
71C0
7180
6180
FFC0
E780
EB80
FB00
E3C0
ENDCHAR
STARTCHAR uni028C
ENCODING 652
SWIDTH 584 0
DWIDTH 11 0
BBX 10 9 2 0
BITMAP
0200
0600
0F00
1700
3700
6300
6380
C380
E3C0
ENDCHAR
STARTCHAR uni028D
ENCODING 653
SWIDTH 822 0
DWIDTH 15 0
BBX 15 9 1 0
BITMAP
0210
0630
0E38
1E78
37F8
2798
6318
C31C
E30E
ENDCHAR
STARTCHAR uni028E
ENCODING 654
SWIDTH 586 0
DWIDTH 11 0
BBX 12 12 0 0
BITMAP
00F0
0080
0100
0200
0600
0F00
1F00
3300
6300
4380
C380
E1C0
ENDCHAR
STARTCHAR uni029E
ENCODING 670
SWIDTH 626 0
DWIDTH 11 0
BBX 10 13 2 -4
BITMAP
F1C0
71C0
3980
1D80
0F80
1F80
7380
E300
E300
0700
0700
0700
0780
ENDCHAR
STARTCHAR uni02BB
ENCODING 699
SWIDTH 265 0
DWIDTH 5 0
BBX 4 5 3 8
BITMAP
30
60
40
E0
E0
ENDCHAR
STARTCHAR afii57929
ENCODING 700
SWIDTH 265 0
DWIDTH 5 0
BBX 4 5 3 8
BITMAP
70
70
20
60
C0
ENDCHAR
STARTCHAR afii64937
ENCODING 701
SWIDTH 265 0
DWIDTH 5 0
BBX 4 5 3 8
BITMAP
E0
E0
40
60
30
ENDCHAR
STARTCHAR circumflex
ENCODING 710
SWIDTH 599 0
DWIDTH 11 0
BBX 6 3 5 10
BITMAP
38
78
CC
ENDCHAR
STARTCHAR caron
ENCODING 711
SWIDTH 599 0
DWIDTH 11 0
BBX 6 3 5 10
BITMAP
8C
58
70
ENDCHAR
STARTCHAR uni02C8
ENCODING 712
SWIDTH 247 0
DWIDTH 4 0
BBX 3 5 3 8
BITMAP
E0
E0
C0
40
40
ENDCHAR
STARTCHAR macron
ENCODING 713
SWIDTH 599 0
DWIDTH 11 0
BBX 6 1 5 12
BITMAP
FC
ENDCHAR
STARTCHAR uni02CA
ENCODING 714
SWIDTH 599 0
DWIDTH 11 0
BBX 5 3 6 10
BITMAP
38
60
C0
ENDCHAR
STARTCHAR uni02CB
ENCODING 715
SWIDTH 599 0
DWIDTH 11 0
BBX 4 3 6 10
BITMAP
E0
60
30
ENDCHAR
STARTCHAR uni02CD
ENCODING 717
SWIDTH 599 0
DWIDTH 11 0
BBX 6 1 5 -2
BITMAP
FC
ENDCHAR
STARTCHAR uni02CE
ENCODING 718
SWIDTH 599 0
DWIDTH 11 0
BBX 4 3 6 -4
BITMAP
E0
60
30
ENDCHAR
STARTCHAR uni02CF
ENCODING 719
SWIDTH 599 0
DWIDTH 11 0
BBX 5 3 6 -4
BITMAP
38
60
C0
ENDCHAR
STARTCHAR breve
ENCODING 728
SWIDTH 599 0
DWIDTH 11 0
BBX 6 3 5 10
BITMAP
84
F8
70
ENDCHAR
STARTCHAR dotaccent
ENCODING 729
SWIDTH 599 0
DWIDTH 11 0
BBX 3 2 6 11
BITMAP
E0
E0
ENDCHAR
STARTCHAR ring
ENCODING 730
SWIDTH 599 0
DWIDTH 11 0
BBX 3 3 7 11
BITMAP
E0
A0
E0
ENDCHAR
STARTCHAR ogonek
ENCODING 731
SWIDTH 599 0
DWIDTH 11 0
BBX 3 3 3 -3
BITMAP
40
80
E0
ENDCHAR
STARTCHAR tilde
ENCODING 732
SWIDTH 599 0
DWIDTH 11 0
BBX 6 2 5 11
BITMAP
74
B8
ENDCHAR
STARTCHAR hungarumlaut
ENCODING 733
SWIDTH 599 0
DWIDTH 11 0
BBX 7 3 6 10
BITMAP
36
68
90
ENDCHAR
STARTCHAR uni02EE
ENCODING 750
SWIDTH 464 0
DWIDTH 8 0
BBX 8 5 2 8
BITMAP
77
77
22
66
CC
ENDCHAR
STARTCHAR uni037E
ENCODING 894
SWIDTH 265 0
DWIDTH 5 0
BBX 5 12 0 -3
BITMAP
38
38
38
00
00
00
70
60
60
60
60
C0
ENDCHAR
STARTCHAR tonos
ENCODING 900
SWIDTH 599 0
DWIDTH 11 0
BBX 5 3 6 10
BITMAP
38
60
C0
ENDCHAR
STARTCHAR dieresistonos
ENCODING 901
SWIDTH 599 0
DWIDTH 11 0
BBX 7 5 5 12
BITMAP
0E
18
30
00
CC
ENDCHAR
STARTCHAR anoteleia
ENCODING 903
SWIDTH 636 0
DWIDTH 11 0
BBX 3 2 5 4
BITMAP
E0
E0
ENDCHAR
STARTCHAR mu
ENCODING 956
SWIDTH 687 0
DWIDTH 12 0
BBX 11 12 1 -3
BITMAP
79E0
38E0
38C0
30C0
31C0
71C0
73C0
75C0
79E0
6000
E000
E000
ENDCHAR
STARTCHAR uni1E00
ENCODING 7680
SWIDTH 765 0
DWIDTH 14 0
BBX 14 17 0 -4
BITMAP
00C0
00E0
01E0
01E0
0260
0460
0470
0870
1FF0
1030
2038
6038
F07C
0000
0380
0280
0380
ENDCHAR
STARTCHAR uni1E01
ENCODING 7681
SWIDTH 634 0
DWIDTH 11 0
BBX 11 13 1 -4
BITMAP
07E0
18E0
30C0
61C0
61C0
E3C0
E5C0
F980
73E0
0000
0E00
0A00
0E00
ENDCHAR
STARTCHAR uni1E02
ENCODING 7682
SWIDTH 651 0
DWIDTH 12 0
BBX 12 16 1 0
BITMAP
0700
0700
0000
3FE0
0C70
0C70
1C70
1C60
1CC0
1F80
18E0
3860
3860
38E0
31C0
FF80
ENDCHAR
STARTCHAR uni1E03
ENCODING 7683
SWIDTH 633 0
DWIDTH 11 0
BBX 11 16 1 0
BITMAP
1C00
1C00
0000
7C00
1800
3800
3800
39C0
33E0
74E0
78E0
70C0
60C0
6180
E300
FC00
ENDCHAR
STARTCHAR uni1E04
ENCODING 7684
SWIDTH 651 0
DWIDTH 12 0
BBX 12 16 1 -3
BITMAP
3FE0
0C70
0C70
1C70
1C60
1CC0
1F80
18E0
3860
3860
38E0
31C0
FF80
0000
0E00
0E00
ENDCHAR
STARTCHAR uni1E05
ENCODING 7685
SWIDTH 633 0
DWIDTH 11 0
BBX 11 16 1 -3
BITMAP
7C00
1800
3800
3800
39C0
33E0
74E0
78E0
70C0
60C0
6180
E300
FC00
0000
1C00
1C00
ENDCHAR
STARTCHAR uni1E06
ENCODING 7686
SWIDTH 651 0
DWIDTH 12 0
BBX 12 15 1 -2
BITMAP
3FE0
0C70
0C70
1C70
1C60
1CC0
1F80
18E0
3860
3860
38E0
31C0
FF80
0000
1F80
ENDCHAR
STARTCHAR uni1E07
ENCODING 7687
SWIDTH 633 0
DWIDTH 11 0
BBX 11 15 1 -2
BITMAP
7C00
1800
3800
3800
39C0
33E0
74E0
78E0
70C0
60C0
6180
E300
FC00
0000
3F00
ENDCHAR
STARTCHAR uni1E08
ENCODING 7688
SWIDTH 740 0
DWIDTH 13 0
BBX 13 20 2 -3
BITMAP
00E0
0180
0300
0000
03F8
0C18
1818
3010
7000
6000
E000
E000
E000
E000
7000
7860
1F80
0800
0400
1C00
ENDCHAR
STARTCHAR uni1E09
ENCODING 7689
SWIDTH 524 0
DWIDTH 9 0
BBX 9 16 1 -3
BITMAP
0700
0C00
1800
0000
0F80
3980
7180
6000
E000
E000
E000
E100
7E00
2000
1000
7000
ENDCHAR
STARTCHAR uni1E0A
ENCODING 7690
SWIDTH 822 0
DWIDTH 15 0
BBX 15 16 0 0
BITMAP
01C0
01C0
0000
3FF8
0E1C
0C0E
1C0E
1C0E
1C0E
1C0E
180E
381C
381C
3838
7870
FFC0
ENDCHAR
STARTCHAR uni1E0B
ENCODING 7691
SWIDTH 634 0
DWIDTH 11 0
BBX 11 16 1 0
BITMAP
0380
0380
0000
01E0
00E0
00C0
00C0
0FC0
11C0
31C0
6180
6380
E580
EF80
FB80
73C0
ENDCHAR
STARTCHAR uni1E0C
ENCODING 7692
SWIDTH 822 0
DWIDTH 15 0
BBX 15 16 0 -3
BITMAP
3FF8
0E1C
0C0E
1C0E
1C0E
1C0E
1C0E
180E
381C
381C
3838
7870
FFC0
0000
0700
0700
ENDCHAR
STARTCHAR uni1E0D
ENCODING 7693
SWIDTH 634 0
DWIDTH 11 0
BBX 11 16 1 -3
BITMAP
01E0
00E0
00C0
00C0
0FC0
11C0
31C0
6180
6380
E580
EF80
FB80
73C0
0000
1C00
1C00
ENDCHAR
STARTCHAR uni1E0E
ENCODING 7694
SWIDTH 822 0
DWIDTH 15 0
BBX 15 15 0 -2
BITMAP
3FF8
0E1C
0C0E
1C0E
1C0E
1C0E
1C0E
180E
381C
381C
3838
7870
FFC0
0000
0FC0
ENDCHAR
STARTCHAR uni1E0F
ENCODING 7695
SWIDTH 634 0
DWIDTH 11 0
BBX 11 15 1 -2
BITMAP
01E0
00E0
00C0
00C0
0FC0
11C0
31C0
6180
6380
E580
EF80
FB80
73C0
0000
3F00
ENDCHAR
STARTCHAR uni1E10
ENCODING 7696
SWIDTH 822 0
DWIDTH 15 0
BBX 15 16 0 -3
BITMAP
3FF8
0E1C
0C0E
1C0E
1C0E
1C0E
1C0E
180E
381C
381C
3838
7870
FFC0
0300
0100
0700
ENDCHAR
STARTCHAR uni1E11
ENCODING 7697
SWIDTH 634 0
DWIDTH 11 0
BBX 11 16 1 -3
BITMAP
01E0
00E0
00C0
00C0
0FC0
11C0
31C0
6180
6380
E580
EF80
FB80
73C0
0C00
0400
1C00
ENDCHAR
STARTCHAR uni1E12
ENCODING 7698
SWIDTH 822 0
DWIDTH 15 0
BBX 15 17 0 -4
BITMAP
3FF8
0E1C
0C0E
1C0E
1C0E
1C0E
1C0E
180E
381C
381C
3838
7870
FFC0
0000
0700
0F00
1980
ENDCHAR
STARTCHAR uni1E13
ENCODING 7699
SWIDTH 634 0
DWIDTH 11 0
BBX 11 17 1 -4
BITMAP
01E0
00E0
00C0
00C0
0FC0
11C0
31C0
6180
6380
E580
EF80
FB80
73C0
0000
0E00
1E00
3300
ENDCHAR
STARTCHAR uni1E14
ENCODING 7700
SWIDTH 630 0
DWIDTH 11 0
BBX 12 19 1 0
BITMAP
0E00
0600
0300
0000
1F80
0000
3FF0
0C30
1C00
1C00
1C00
1C40
1F80
3880
3800
3800
3840
70C0
FFC0
ENDCHAR
STARTCHAR uni1E15
ENCODING 7701
SWIDTH 548 0
DWIDTH 10 0
BBX 9 15 1 0
BITMAP
3800
1800
0C00
0000
3F00
0000
0F00
3380
6380
6300
E700
FC00
E000
E180
7E00
ENDCHAR
STARTCHAR uni1E16
ENCODING 7702
SWIDTH 630 0
DWIDTH 11 0
BBX 12 19 1 0
BITMAP
01C0
0300
0600
0000
1F80
0000
3FF0
0C30
1C00
1C00
1C00
1C40
1F80
3880
3800
3800
3840
70C0
FFC0
ENDCHAR
STARTCHAR uni1E17
ENCODING 7703
SWIDTH 548 0
DWIDTH 10 0
BBX 9 15 1 0
BITMAP
0380
0600
0C00
0000
3F00
0000
0F00
3380
6380
6300
E700
FC00
E000
E180
7E00
ENDCHAR
STARTCHAR uni1E18
ENCODING 7704
SWIDTH 630 0
DWIDTH 11 0
BBX 12 17 1 -4
BITMAP
3FF0
0C30
1C00
1C00
1C00
1C40
1F80
3880
3800
3800
3840
70C0
FFC0
0000
0E00
1E00
3300
ENDCHAR
STARTCHAR uni1E19
ENCODING 7705
SWIDTH 548 0
DWIDTH 10 0
BBX 9 13 1 -4
BITMAP
0F00
3380
6380
6300
E700
FC00
E000
E180
7E00
0000
1C00
3C00
6600
ENDCHAR
STARTCHAR uni1E1A
ENCODING 7706
SWIDTH 630 0
DWIDTH 11 0
BBX 12 16 1 -3
BITMAP
3FF0
0C30
1C00
1C00
1C00
1C40
1F80
3880
3800
3800
3840
70C0
FFC0
0000
1D00
2E00
ENDCHAR
STARTCHAR uni1E1B
ENCODING 7707
SWIDTH 548 0
DWIDTH 10 0
BBX 9 12 1 -3
BITMAP
0F00
3380
6380
6300
E700
FC00
E000
E180
7E00
0000
3A00
5C00
ENDCHAR
STARTCHAR uni1E1C
ENCODING 7708
SWIDTH 630 0
DWIDTH 11 0
BBX 12 20 1 -3
BITMAP
1080
1F00
0E00
0000
3FF0
0C30
1C00
1C00
1C00
1C40
1F80
3880
3800
3800
3840
70C0
FFC0
0C00
0400
1C00
ENDCHAR
STARTCHAR uni1E1D
ENCODING 7709
SWIDTH 548 0
DWIDTH 10 0
BBX 9 16 1 -3
BITMAP
2100
3E00
1C00
0000
0F00
3380
6380
6300
E700
FC00
E000
E180
7E00
1800
0800
3800
ENDCHAR
STARTCHAR uni1E1E
ENCODING 7710
SWIDTH 602 0
DWIDTH 11 0
BBX 12 16 1 0
BITMAP
0700
0700
0000
3FF0
0C30
1C30
1C00
1C00
1C40
1F80
3880
3800
3800
3800
7000
FC00
ENDCHAR
STARTCHAR uni1E1F
ENCODING 7711
SWIDTH 415 0
DWIDTH 7 0
BBX 10 20 1 -3
BITMAP
0E00
0E00
0000
07C0
0CC0
0CC0
1C00
1800
7F00
3800
3800
3800
3000
7000
7000
7000
6000
6000
E000
E000
ENDCHAR
STARTCHAR uni1E20
ENCODING 7712
SWIDTH 780 0
DWIDTH 14 0
BBX 13 15 2 0
BITMAP
07E0
0000
03F8
0E18
1818
3000
7000
6000
E000
E1F8
E070
E0E0
60E0
70E0
1F80
ENDCHAR
STARTCHAR uni1E21
ENCODING 7713
SWIDTH 628 0
DWIDTH 11 0
BBX 11 14 1 -3
BITMAP
0FC0
0000
07E0
18E0
30E0
30C0
71C0
63C0
67C0
7D80
7380
8380
C300
7C00
ENDCHAR
STARTCHAR uni1E22
ENCODING 7714
SWIDTH 827 0
DWIDTH 15 0
BBX 16 16 1 0
BITMAP
01C0
01C0
0000
3F3F
0E0E
1C1C
1C1C
1C1C
1C1C
1FF8
3838
3838
3838
3838
7070
FCFC
ENDCHAR
STARTCHAR uni1E23
ENCODING 7715
SWIDTH 656 0
DWIDTH 12 0
BBX 10 16 2 0
BITMAP
3800
3800
0000
7800
3800
3800
3800
3180
37C0
75C0
79C0
7180
6180
6380
E380
E3C0
ENDCHAR
STARTCHAR uni1E24
ENCODING 7716
SWIDTH 827 0
DWIDTH 15 0
BBX 16 16 1 -3
BITMAP
3F3F
0E0E
1C1C
1C1C
1C1C
1C1C
1FF8
3838
3838
3838
3838
7070
FCFC
0000
0380
0380
ENDCHAR
STARTCHAR uni1E25
ENCODING 7717
SWIDTH 656 0
DWIDTH 12 0
BBX 10 16 2 -3
BITMAP
7800
3800
3800
3800
3180
37C0
75C0
79C0
7180
6180
6380
E380
E3C0
0000
0E00
0E00
ENDCHAR
STARTCHAR uni1E26
ENCODING 7718
SWIDTH 827 0
DWIDTH 15 0
BBX 16 15 1 0
BITMAP
0330
0000
3F3F
0E0E
1C1C
1C1C
1C1C
1C1C
1FF8
3838
3838
3838
3838
7070
FCFC
ENDCHAR
STARTCHAR uni1E27
ENCODING 7719
SWIDTH 656 0
DWIDTH 12 0
BBX 10 15 2 0
BITMAP
6600
0000
7800
3800
3800
3800
3180
37C0
75C0
79C0
7180
6180
6380
E380
E3C0
ENDCHAR
STARTCHAR uni1E28
ENCODING 7720
SWIDTH 827 0
DWIDTH 15 0
BBX 16 16 1 -3
BITMAP
3F3F
0E0E
1C1C
1C1C
1C1C
1C1C
1FF8
3838
3838
3838
3838
7070
FCFC
0180
0080
0380
ENDCHAR
STARTCHAR uni1E29
ENCODING 7721
SWIDTH 656 0
DWIDTH 12 0
BBX 10 16 2 -3
BITMAP
7800
3800
3800
3800
3180
37C0
75C0
79C0
7180
6180
6380
E380
E3C0
0C00
0400
1C00
ENDCHAR
STARTCHAR uni1E2A
ENCODING 7722
SWIDTH 827 0
DWIDTH 15 0
BBX 16 17 1 -4
BITMAP
3F3F
0E0E
1C1C
1C1C
1C1C
1C1C
1FF8
3838
3838
3838
3838
7070
FCFC
0000
0840
0F80
0700
ENDCHAR
STARTCHAR uni1E2B
ENCODING 7723
SWIDTH 656 0
DWIDTH 12 0
BBX 10 17 2 -4
BITMAP
7800
3800
3800
3800
3180
37C0
75C0
79C0
7180
6180
6380
E380
E3C0
0000
2100
3E00
1C00
ENDCHAR
STARTCHAR uni1E2C
ENCODING 7724
SWIDTH 372 0
DWIDTH 7 0
BBX 8 16 1 -3
BITMAP
3F
0E
1C
1C
1C
1C
18
38
38
38
38
70
FC
00
74
B8
ENDCHAR
STARTCHAR uni1E2D
ENCODING 7725
SWIDTH 319 0
DWIDTH 6 0
BBX 6 16 1 -3
BITMAP
1C
1C
00
00
78
38
38
38
30
30
70
70
78
00
74
B8
ENDCHAR
STARTCHAR uni1E2E
ENCODING 7726
SWIDTH 372 0
DWIDTH 7 0
BBX 9 19 1 0
BITMAP
0380
0600
0C00
0000
1980
0000
3F00
0E00
1C00
1C00
1C00
1C00
1800
3800
3800
3800
3800
7000
FC00
ENDCHAR
STARTCHAR uni1E2F
ENCODING 7727
SWIDTH 319 0
DWIDTH 6 0
BBX 7 15 1 0
BITMAP
0E
18
30
00
66
00
F8
38
30
70
70
70
60
E0
F8
ENDCHAR
STARTCHAR uni1E30
ENCODING 7728
SWIDTH 746 0
DWIDTH 13 0
BBX 14 17 1 0
BITMAP
00E0
0180
0300
0000
3F3C
0E10
0C20
1C40
1D80
1A00
1F00
1B80
3BC0
39C0
30E0
70F0
F9F8
ENDCHAR
STARTCHAR uni1E31
ENCODING 7729
SWIDTH 626 0
DWIDTH 11 0
BBX 10 17 2 0
BITMAP
0E00
1800
3000
0000
7800
3800
3800
3800
31C0
31C0
7380
7E00
7C00
6E00
6700
E380
E3C0
ENDCHAR
STARTCHAR uni1E32
ENCODING 7730
SWIDTH 746 0
DWIDTH 13 0
BBX 14 16 1 -3
BITMAP
3F3C
0E10
0C20
1C40
1D80
1A00
1F00
1B80
3BC0
39C0
30E0
70F0
F9F8
0000
0700
0700
ENDCHAR
STARTCHAR uni1E33
ENCODING 7731
SWIDTH 626 0
DWIDTH 11 0
BBX 10 16 2 -3
BITMAP
7800
3800
3800
3800
31C0
31C0
7380
7E00
7C00
6E00
6700
E380
E3C0
0000
1C00
1C00
ENDCHAR
STARTCHAR uni1E34
ENCODING 7732
SWIDTH 746 0
DWIDTH 13 0
BBX 14 15 1 -2
BITMAP
3F3C
0E10
0C20
1C40
1D80
1A00
1F00
1B80
3BC0
39C0
30E0
70F0
F9F8
0000
0FC0
ENDCHAR
STARTCHAR uni1E35
ENCODING 7733
SWIDTH 626 0
DWIDTH 11 0
BBX 10 15 2 -2
BITMAP
7800
3800
3800
3800
31C0
31C0
7380
7E00
7C00
6E00
6700
E380
E3C0
0000
3F00
ENDCHAR
STARTCHAR uni1E36
ENCODING 7734
SWIDTH 611 0
DWIDTH 11 0
BBX 11 16 0 -3
BITMAP
1F00
0E00
0C00
1C00
1C00
1C00
1C00
1800
3800
3800
3820
3860
FFC0
0000
0E00
0E00
ENDCHAR
STARTCHAR uni1E37
ENCODING 7735
SWIDTH 319 0
DWIDTH 6 0
BBX 5 16 2 -3
BITMAP
78
38
38
30
30
70
70
70
60
60
E0
E0
F0
00
70
70
ENDCHAR
STARTCHAR uni1E38
ENCODING 7736
SWIDTH 611 0
DWIDTH 11 0
BBX 11 18 0 -3
BITMAP
3F00
0000
1F00
0E00
0C00
1C00
1C00
1C00
1C00
1800
3800
3800
3820
3860
FFC0
0000
0E00
0E00
ENDCHAR
STARTCHAR uni1E39
ENCODING 7737
SWIDTH 319 0
DWIDTH 6 0
BBX 6 18 2 -3
BITMAP
FC
00
78
38
38
30
30
70
70
70
60
60
E0
E0
F0
00
70
70
ENDCHAR
STARTCHAR uni1E3A
ENCODING 7738
SWIDTH 611 0
DWIDTH 11 0
BBX 11 15 0 -2
BITMAP
1F00
0E00
0C00
1C00
1C00
1C00
1C00
1800
3800
3800
3820
3860
FFC0
0000
3F00
ENDCHAR
STARTCHAR uni1E3B
ENCODING 7739
SWIDTH 319 0
DWIDTH 6 0
BBX 6 15 1 -2
BITMAP
3C
1C
1C
18
18
38
38
38
30
30
70
70
78
00
FC
ENDCHAR
STARTCHAR uni1E3C
ENCODING 7740
SWIDTH 611 0
DWIDTH 11 0
BBX 11 17 0 -4
BITMAP
1F00
0E00
0C00
1C00
1C00
1C00
1C00
1800
3800
3800
3820
3860
FFC0
0000
0E00
1E00
3300
ENDCHAR
STARTCHAR uni1E3D
ENCODING 7741
SWIDTH 319 0
DWIDTH 6 0
BBX 6 17 1 -4
BITMAP
3C
1C
1C
18
18
38
38
38
30
30
70
70
78
00
38
78
CC
ENDCHAR
STARTCHAR uni1E3E
ENCODING 7742
SWIDTH 926 0
DWIDTH 17 0
BBX 18 17 1 0
BITMAP
003800
006000
00C000
000000
3C03C0
0E0780
0E0700
1E0F00
161700
131600
132600
134600
334E00
218E00
210C00
600C00
F03F00
ENDCHAR
STARTCHAR uni1E3F
ENCODING 7743
SWIDTH 969 0
DWIDTH 17 0
BBX 16 13 2 0
BITMAP
0070
00C0
0180
0000
F9CE
37DF
75F7
79E7
71C6
6186
618E
E38E
E38F
ENDCHAR
STARTCHAR uni1E40
ENCODING 7744
SWIDTH 926 0
DWIDTH 17 0
BBX 18 16 1 0
BITMAP
00E000
00E000
000000
3C03C0
0E0780
0E0700
1E0F00
161700
131600
132600
134600
334E00
218E00
210C00
600C00
F03F00
ENDCHAR
STARTCHAR uni1E41
ENCODING 7745
SWIDTH 969 0
DWIDTH 17 0
BBX 16 12 2 0
BITMAP
01C0
01C0
0000
F9CE
37DF
75F7
79E7
71C6
6186
618E
E38E
E38F
ENDCHAR
STARTCHAR uni1E42
ENCODING 7746
SWIDTH 926 0
DWIDTH 17 0
BBX 18 16 1 -3
BITMAP
3C03C0
0E0780
0E0700
1E0F00
161700
131600
132600
134600
334E00
218E00
210C00
600C00
F03F00
000000
01C000
01C000
ENDCHAR
STARTCHAR uni1E43
ENCODING 7747
SWIDTH 969 0
DWIDTH 17 0
BBX 16 12 2 -3
BITMAP
F9CE
37DF
75F7
79E7
71C6
6186
618E
E38E
E38F
0000
01C0
01C0
ENDCHAR
STARTCHAR uni1E44
ENCODING 7748
SWIDTH 797 0
DWIDTH 14 0
BBX 16 16 0 0
BITMAP
01C0
01C0
0000
3C0F
0E06
0E04
1F04
1B0C
1388
11C8
11C8
30E8
20F8
2070
6030
F030
ENDCHAR
STARTCHAR uni1E45
ENCODING 7749
SWIDTH 656 0
DWIDTH 12 0
BBX 10 12 2 0
BITMAP
0E00
0E00
0000
F180
37C0
7DC0
79C0
7180
6180
6380
E380
E3C0
ENDCHAR
STARTCHAR uni1E46
ENCODING 7750
SWIDTH 797 0
DWIDTH 14 0
BBX 16 16 0 -3
BITMAP
3C0F
0E06
0E04
1F04
1B0C
1388
11C8
11C8
30E8
20F8
2070
6030
F030
0000
0380
0380
ENDCHAR
STARTCHAR uni1E47
ENCODING 7751
SWIDTH 656 0
DWIDTH 12 0
BBX 10 12 2 -3
BITMAP
F180
37C0
7DC0
79C0
7180
6180
6380
E380
E3C0
0000
0E00
0E00
ENDCHAR
STARTCHAR uni1E48
ENCODING 7752
SWIDTH 797 0
DWIDTH 14 0
BBX 16 15 0 -2
BITMAP
3C0F
0E06
0E04
1F04
1B0C
1388
11C8
11C8
30E8
20F8
2070
6030
F030
0000
07E0
ENDCHAR
STARTCHAR uni1E49
ENCODING 7753
SWIDTH 656 0
DWIDTH 12 0
BBX 10 11 2 -2
BITMAP
F180
37C0
7DC0
79C0
7180
6180
6380
E380
E3C0
0000
3F00
ENDCHAR
STARTCHAR uni1E4A
ENCODING 7754
SWIDTH 797 0
DWIDTH 14 0
BBX 16 17 0 -4
BITMAP
3C0F
0E06
0E04
1F04
1B0C
1388
11C8
11C8
30E8
20F8
2070
6030
F030
0000
0380
0780
0CC0
ENDCHAR
STARTCHAR uni1E4B
ENCODING 7755
SWIDTH 656 0
DWIDTH 12 0
BBX 10 13 2 -4
BITMAP
F180
37C0
7DC0
79C0
7180
6180
6380
E380
E3C0
0000
0E00
1E00
3300
ENDCHAR
STARTCHAR uni1E4C
ENCODING 7756
SWIDTH 831 0
DWIDTH 15 0
BBX 14 20 2 0
BITMAP
0070
00C0
0180
0000
01D0
02E0
0000
03E0
0C30
1818
301C
701C
601C
E018
E038
E038
E070
E060
71C0
1F00
ENDCHAR
STARTCHAR uni1E4D
ENCODING 7757
SWIDTH 599 0
DWIDTH 11 0
BBX 10 16 1 0
BITMAP
01C0
0300
0600
0000
0740
0B80
0000
0F80
39C0
71C0
61C0
E1C0
E180
E380
E300
7C00
ENDCHAR
STARTCHAR uni1E4E
ENCODING 7758
SWIDTH 831 0
DWIDTH 15 0
BBX 14 18 2 0
BITMAP
0660
0000
01D0
02E0
0000
03E0
0C30
1818
301C
701C
601C
E018
E038
E038
E070
E060
71C0
1F00
ENDCHAR
STARTCHAR uni1E4F
ENCODING 7759
SWIDTH 599 0
DWIDTH 11 0
BBX 10 14 1 0
BITMAP
1980
0000
0740
0B80
0000
0F80
39C0
71C0
61C0
E1C0
E180
E380
E300
7C00
ENDCHAR
STARTCHAR uni1E50
ENCODING 7760
SWIDTH 831 0
DWIDTH 15 0
BBX 14 19 2 0
BITMAP
0700
0300
0180
0000
07E0
0000
03E0
0C30
1818
301C
701C
601C
E018
E038
E038
E070
E060
71C0
1F00
ENDCHAR
STARTCHAR uni1E51
ENCODING 7761
SWIDTH 599 0
DWIDTH 11 0
BBX 10 15 1 0
BITMAP
1C00
0C00
0600
0000
1F80
0000
0F80
39C0
71C0
61C0
E1C0
E180
E380
E300
7C00
ENDCHAR
STARTCHAR uni1E52
ENCODING 7762
SWIDTH 831 0
DWIDTH 15 0
BBX 14 19 2 0
BITMAP
00E0
0180
0300
0000
07E0
0000
03E0
0C30
1818
301C
701C
601C
E018
E038
E038
E070
E060
71C0
1F00
ENDCHAR
STARTCHAR uni1E53
ENCODING 7763
SWIDTH 599 0
DWIDTH 11 0
BBX 10 15 1 0
BITMAP
0380
0600
0C00
0000
1F80
0000
0F80
39C0
71C0
61C0
E1C0
E180
E380
E300
7C00
ENDCHAR
STARTCHAR uni1E54
ENCODING 7764
SWIDTH 628 0
DWIDTH 11 0
BBX 12 17 1 0
BITMAP
01C0
0300
0600
0000
3FE0
0C70
1C70
1C70
1C70
1860
18C0
3F80
3800
3800
3000
7000
FC00
ENDCHAR
STARTCHAR uni1E55
ENCODING 7765
SWIDTH 639 0
DWIDTH 11 0
BBX 11 16 1 -3
BITMAP
0380
0600
0C00
0000
79C0
3BE0
3EE0
3CE0
38E0
70C0
7180
7100
7E00
E000
E000
E000
ENDCHAR
STARTCHAR uni1E56
ENCODING 7766
SWIDTH 628 0
DWIDTH 11 0
BBX 12 16 1 0
BITMAP
0700
0700
0000
3FE0
0C70
1C70
1C70
1C70
1860
18C0
3F80
3800
3800
3000
7000
FC00
ENDCHAR
STARTCHAR uni1E57
ENCODING 7767
SWIDTH 639 0
DWIDTH 11 0
BBX 11 15 1 -3
BITMAP
0E00
0E00
0000
79C0
3BE0
3EE0
3CE0
38E0
70C0
7180
7100
7E00
E000
E000
E000
ENDCHAR
STARTCHAR uni1E58
ENCODING 7768
SWIDTH 711 0
DWIDTH 13 0
BBX 12 16 1 0
BITMAP
0700
0700
0000
3FE0
0C70
1C70
1C70
1C60
18E0
1F80
3B80
3980
39C0
30C0
70E0
F8F0
ENDCHAR
STARTCHAR uni1E59
ENCODING 7769
SWIDTH 496 0
DWIDTH 9 0
BBX 9 12 2 0
BITMAP
1C00
1C00
0000
F180
3700
7C00
7800
7000
6000
6000
E000
E000
ENDCHAR
STARTCHAR uni1E5A
ENCODING 7770
SWIDTH 711 0
DWIDTH 13 0
BBX 12 16 1 -3
BITMAP
3FE0
0C70
1C70
1C70
1C60
18E0
1F80
3B80
3980
39C0
30C0
70E0
F8F0
0000
0E00
0E00
ENDCHAR
STARTCHAR uni1E5B
ENCODING 7771
SWIDTH 496 0
DWIDTH 9 0
BBX 9 12 2 -3
BITMAP
F180
3700
7C00
7800
7000
6000
6000
E000
E000
0000
7000
7000
ENDCHAR
STARTCHAR uni1E5C
ENCODING 7772
SWIDTH 711 0
DWIDTH 13 0
BBX 12 18 1 -3
BITMAP
0FC0
0000
3FE0
0C70
1C70
1C70
1C60
18E0
1F80
3B80
3980
39C0
30C0
70E0
F8F0
0000
0E00
0E00
ENDCHAR
STARTCHAR uni1E5D
ENCODING 7773
SWIDTH 496 0
DWIDTH 9 0
BBX 9 14 2 -3
BITMAP
7E00
0000
F180
3700
7C00
7800
7000
6000
6000
E000
E000
0000
7000
7000
ENDCHAR
STARTCHAR uni1E5E
ENCODING 7774
SWIDTH 711 0
DWIDTH 13 0
BBX 12 15 1 -2
BITMAP
3FE0
0C70
1C70
1C70
1C60
18E0
1F80
3B80
3980
39C0
30C0
70E0
F8F0
0000
1F80
ENDCHAR
STARTCHAR uni1E5F
ENCODING 7775
SWIDTH 496 0
DWIDTH 9 0
BBX 9 11 2 -2
BITMAP
F180
3700
7C00
7800
7000
6000
6000
E000
E000
0000
FC00
ENDCHAR
STARTCHAR uni1E60
ENCODING 7776
SWIDTH 587 0
DWIDTH 11 0
BBX 10 16 2 0
BITMAP
0E00
0E00
0000
0FC0
18C0
38C0
3000
3800
3C00
1F00
0700
0380
0380
C380
C700
FC00
ENDCHAR
STARTCHAR uni1E61
ENCODING 7777
SWIDTH 479 0
DWIDTH 9 0
BBX 8 12 1 0
BITMAP
1C
1C
00
1F
31
31
38
1C
0E
C6
CE
FC
ENDCHAR
STARTCHAR uni1E62
ENCODING 7778
SWIDTH 587 0
DWIDTH 11 0
BBX 10 16 2 -3
BITMAP
0FC0
18C0
38C0
3000
3800
3C00
1F00
0700
0380
0380
C380
C700
FC00
0000
1C00
1C00
ENDCHAR
STARTCHAR uni1E63
ENCODING 7779
SWIDTH 479 0
DWIDTH 9 0
BBX 8 12 1 -3
BITMAP
1F
31
31
38
1C
0E
C6
CE
FC
00
38
38
ENDCHAR
STARTCHAR uni1E64
ENCODING 7780
SWIDTH 587 0
DWIDTH 11 0
BBX 10 20 2 0
BITMAP
0700
0700
0000
0380
0600
0C00
0000
0FC0
18C0
38C0
3000
3800
3C00
1F00
0700
0380
0380
C380
C700
FC00
ENDCHAR
STARTCHAR uni1E65
ENCODING 7781
SWIDTH 479 0
DWIDTH 9 0
BBX 8 16 1 0
BITMAP
1C
1C
00
07
0C
18
00
1F
31
31
38
1C
0E
C6
CE
FC
ENDCHAR
STARTCHAR uni1E66
ENCODING 7782
SWIDTH 587 0
DWIDTH 11 0
BBX 10 20 2 0
BITMAP
0700
0700
0000
08C0
0580
0700
0000
0FC0
18C0
38C0
3000
3800
3C00
1F00
0700
0380
0380
C380
C700
FC00
ENDCHAR
STARTCHAR uni1E67
ENCODING 7783
SWIDTH 479 0
DWIDTH 9 0
BBX 9 16 1 0
BITMAP
0E00
0E00
0000
1180
0B00
0E00
0000
1F00
3100
3100
3800
1C00
0E00
C600
CE00
FC00
ENDCHAR
STARTCHAR uni1E68
ENCODING 7784
SWIDTH 587 0
DWIDTH 11 0
BBX 10 19 2 -3
BITMAP
0E00
0E00
0000
0FC0
18C0
38C0
3000
3800
3C00
1F00
0700
0380
0380
C380
C700
FC00
0000
1C00
1C00
ENDCHAR
STARTCHAR uni1E69
ENCODING 7785
SWIDTH 479 0
DWIDTH 9 0
BBX 8 15 1 -3
BITMAP
1C
1C
00
1F
31
31
38
1C
0E
C6
CE
FC
00
38
38
ENDCHAR
STARTCHAR uni1E6A
ENCODING 7786
SWIDTH 716 0
DWIDTH 13 0
BBX 13 16 2 0
BITMAP
0700
0700
0000
FFF8
C718
8718
0600
0E00
0E00
0E00
0E00
0C00
1C00
1C00
1C00
7E00
ENDCHAR
STARTCHAR uni1E6B
ENCODING 7787
SWIDTH 375 0
DWIDTH 7 0
BBX 6 15 2 0
BITMAP
38
38
00
30
30
30
FC
70
60
60
60
E0
E0
E0
70
ENDCHAR
STARTCHAR uni1E6C
ENCODING 7788
SWIDTH 716 0
DWIDTH 13 0
BBX 13 16 2 -3
BITMAP
FFF8
C718
8718
0600
0E00
0E00
0E00
0E00
0C00
1C00
1C00
1C00
7E00
0000
0E00
0E00
ENDCHAR
STARTCHAR uni1E6D
ENCODING 7789
SWIDTH 375 0
DWIDTH 7 0
BBX 6 15 2 -3
BITMAP
30
30
30
FC
70
60
60
60
E0
E0
E0
70
00
70
70
ENDCHAR
STARTCHAR uni1E6E
ENCODING 7790
SWIDTH 716 0
DWIDTH 13 0
BBX 13 15 2 -2
BITMAP
FFF8
C718
8718
0600
0E00
0E00
0E00
0E00
0C00
1C00
1C00
1C00
7E00
0000
3F00
ENDCHAR
STARTCHAR uni1E6F
ENCODING 7791
SWIDTH 375 0
DWIDTH 7 0
BBX 7 14 1 -2
BITMAP
18
18
18
7E
38
30
30
30
70
70
70
38
00
FC
ENDCHAR
STARTCHAR uni1E70
ENCODING 7792
SWIDTH 716 0
DWIDTH 13 0
BBX 13 17 2 -4
BITMAP
FFF8
C718
8718
0600
0E00
0E00
0E00
0E00
0C00
1C00
1C00
1C00
7E00
0000
0E00
1E00
3300
ENDCHAR
STARTCHAR uni1E71
ENCODING 7793
SWIDTH 375 0
DWIDTH 7 0
BBX 7 16 1 -4
BITMAP
18
18
18
7E
38
30
30
30
70
70
70
38
00
38
78
CC
ENDCHAR
STARTCHAR uni1E72
ENCODING 7794
SWIDTH 775 0
DWIDTH 14 0
BBX 13 15 3 -2
BITMAP
FC78
7030
7020
7020
7020
6020
E020
E040
E040
E040
E080
7180
3E00
0000
3300
ENDCHAR
STARTCHAR uni1E73
ENCODING 7795
SWIDTH 655 0
DWIDTH 12 0
BBX 10 11 2 -2
BITMAP
F3C0
71C0
7180
6180
6380
E780
EB80
FB00
E3C0
0000
3300
ENDCHAR
STARTCHAR uni1E74
ENCODING 7796
SWIDTH 775 0
DWIDTH 14 0
BBX 13 16 3 -3
BITMAP
FC78
7030
7020
7020
7020
6020
E020
E040
E040
E040
E080
7180
3E00
0000
1D00
2E00
ENDCHAR
STARTCHAR uni1E75
ENCODING 7797
SWIDTH 655 0
DWIDTH 12 0
BBX 10 12 2 -3
BITMAP
F3C0
71C0
7180
6180
6380
E780
EB80
FB00
E3C0
0000
1D00
2E00
ENDCHAR
STARTCHAR uni1E76
ENCODING 7798
SWIDTH 775 0
DWIDTH 14 0
BBX 13 17 3 -4
BITMAP
FC78
7030
7020
7020
7020
6020
E020
E040
E040
E040
E080
7180
3E00
0000
0E00
1E00
3300
ENDCHAR
STARTCHAR uni1E77
ENCODING 7799
SWIDTH 655 0
DWIDTH 12 0
BBX 10 13 2 -4
BITMAP
F3C0
71C0
7180
6180
6380
E780
EB80
FB00
E3C0
0000
1C00
3C00
6600
ENDCHAR
STARTCHAR uni1E78
ENCODING 7800
SWIDTH 775 0
DWIDTH 14 0
BBX 13 20 3 0
BITMAP
01C0
0300
0600
0000
0E80
1700
0000
FC78
7030
7020
7020
7020
6020
E020
E040
E040
E040
E080
7180
3E00
ENDCHAR
STARTCHAR uni1E79
ENCODING 7801
SWIDTH 655 0
DWIDTH 12 0
BBX 10 16 2 0
BITMAP
0380
0600
0C00
0000
1D00
2E00
0000
F3C0
71C0
7180
6180
6380
E780
EB80
FB00
E3C0
ENDCHAR
STARTCHAR uni1E7A
ENCODING 7802
SWIDTH 775 0
DWIDTH 14 0
BBX 13 17 3 0
BITMAP
1980
0000
1F80
0000
FC78
7030
7020
7020
7020
6020
E020
E040
E040
E040
E080
7180
3E00
ENDCHAR
STARTCHAR uni1E7B
ENCODING 7803
SWIDTH 655 0
DWIDTH 12 0
BBX 10 13 2 0
BITMAP
3300
0000
3F00
0000
F3C0
71C0
7180
6180
6380
E780
EB80
FB00
E3C0
ENDCHAR
STARTCHAR uni1E7C
ENCODING 7804
SWIDTH 741 0
DWIDTH 13 0
BBX 14 16 2 0
BITMAP
0740
0B80
0000
F83C
7018
7010
3020
3820
3840
3880
1880
1D00
1F00
1E00
1C00
0C00
ENDCHAR
STARTCHAR uni1E7D
ENCODING 7805
SWIDTH 584 0
DWIDTH 11 0
BBX 10 12 2 0
BITMAP
1D00
2E00
0000
F1C0
70C0
7180
3180
3B00
3A00
3C00
1800
1000
ENDCHAR
STARTCHAR uni1E7E
ENCODING 7806
SWIDTH 741 0
DWIDTH 13 0
BBX 14 16 2 -3
BITMAP
F83C
7018
7010
3020
3820
3840
3880
1880
1D00
1F00
1E00
1C00
0C00
0000
0E00
0E00
ENDCHAR
STARTCHAR uni1E7F
ENCODING 7807
SWIDTH 584 0
DWIDTH 11 0
BBX 10 12 2 -3
BITMAP
F1C0
70C0
7180
3180
3B00
3A00
3C00
1800
1000
0000
1C00
1C00
ENDCHAR
STARTCHAR Wgrave
ENCODING 7808
SWIDTH 922 0
DWIDTH 17 0
BBX 17 17 2 0
BITMAP
070000
030000
018000
000000
F8C380
70C100
71C200
71C200
72C400
72C400
74C800
74D800
78D000
38F000
30E000
30C000
20C000
ENDCHAR
STARTCHAR wgrave
ENCODING 7809
SWIDTH 822 0
DWIDTH 15 0
BBX 15 13 1 0
BITMAP
0700
0300
0180
0000
E18E
7186
318C
33C8
3FD8
3CF0
38E0
18C0
1080
ENDCHAR
STARTCHAR Wacute
ENCODING 7810
SWIDTH 922 0
DWIDTH 17 0
BBX 17 17 2 0
BITMAP
00E000
018000
030000
000000
F8C380
70C100
71C200
71C200
72C400
72C400
74C800
74D800
78D000
38F000
30E000
30C000
20C000
ENDCHAR
STARTCHAR wacute
ENCODING 7811
SWIDTH 822 0
DWIDTH 15 0
BBX 15 13 1 0
BITMAP
00E0
0180
0300
0000
E18E
7186
318C
33C8
3FD8
3CF0
38E0
18C0
1080
ENDCHAR
STARTCHAR Wdieresis
ENCODING 7812
SWIDTH 922 0
DWIDTH 17 0
BBX 17 15 2 0
BITMAP
066000
000000
F8C380
70C100
71C200
71C200
72C400
72C400
74C800
74D800
78D000
38F000
30E000
30C000
20C000
ENDCHAR
STARTCHAR wdieresis
ENCODING 7813
SWIDTH 822 0
DWIDTH 15 0
BBX 15 11 1 0
BITMAP
0660
0000
E18E
7186
318C
33C8
3FD8
3CF0
38E0
18C0
1080
ENDCHAR
STARTCHAR uni1E86
ENCODING 7814
SWIDTH 922 0
DWIDTH 17 0
BBX 17 16 2 0
BITMAP
038000
038000
000000
F8C380
70C100
71C200
71C200
72C400
72C400
74C800
74D800
78D000
38F000
30E000
30C000
20C000
ENDCHAR
STARTCHAR uni1E87
ENCODING 7815
SWIDTH 822 0
DWIDTH 15 0
BBX 15 12 1 0
BITMAP
0380
0380
0000
E18E
7186
318C
33C8
3FD8
3CF0
38E0
18C0
1080
ENDCHAR
STARTCHAR uni1E88
ENCODING 7816
SWIDTH 922 0
DWIDTH 17 0
BBX 17 16 2 -3
BITMAP
F8C380
70C100
71C200
71C200
72C400
72C400
74C800
74D800
78D000
38F000
30E000
30C000
20C000
000000
038000
038000
ENDCHAR
STARTCHAR uni1E89
ENCODING 7817
SWIDTH 822 0
DWIDTH 15 0
BBX 15 12 1 -3
BITMAP
E18E
7186
318C
33C8
3FD8
3CF0
38E0
18C0
1080
0000
0700
0700
ENDCHAR
STARTCHAR uni1E8A
ENCODING 7818
SWIDTH 672 0
DWIDTH 12 0
BBX 14 16 0 0
BITMAP
0380
0380
0000
1F1C
0E18
0E30
0720
0740
0380
0380
0780
0DC0
19C0
30E0
60E0
E1F0
ENDCHAR
STARTCHAR uni1E8B
ENCODING 7819
SWIDTH 534 0
DWIDTH 10 0
BBX 9 12 1 0
BITMAP
1C00
1C00
0000
7180
3980
1B00
1E00
1C00
3E00
6E00
C700
C780
ENDCHAR
STARTCHAR uni1E8C
ENCODING 7820
SWIDTH 672 0
DWIDTH 12 0
BBX 14 15 0 0
BITMAP
0660
0000
1F1C
0E18
0E30
0720
0740
0380
0380
0780
0DC0
19C0
30E0
60E0
E1F0
ENDCHAR
STARTCHAR uni1E8D
ENCODING 7821
SWIDTH 534 0
DWIDTH 10 0
BBX 9 11 1 0
BITMAP
3300
0000
7180
3980
1B00
1E00
1C00
3E00
6E00
C700
C780
ENDCHAR
STARTCHAR uni1E8E
ENCODING 7822
SWIDTH 669 0
DWIDTH 12 0
BBX 12 16 3 0
BITMAP
0E00
0E00
0000
F870
7060
7040
3880
3900
1A00
1E00
1C00
1C00
1C00
1800
3800
7E00
ENDCHAR
STARTCHAR uni1E8F
ENCODING 7823
SWIDTH 586 0
DWIDTH 11 0
BBX 12 15 0 -3
BITMAP
0700
0700
0000
3870
1C30
1C20
0C60
0CC0
0F80
0F00
0600
0400
0800
1000
F000
ENDCHAR
STARTCHAR uni1E90
ENCODING 7824
SWIDTH 684 0
DWIDTH 12 0
BBX 12 17 1 0
BITMAP
0380
0780
0CC0
0000
1FF0
10E0
11E0
01C0
0380
0700
0F00
0E00
1C00
3800
7040
70C0
FFC0
ENDCHAR
STARTCHAR uni1E91
ENCODING 7825
SWIDTH 567 0
DWIDTH 10 0
BBX 10 13 1 0
BITMAP
0700
0F00
1980
0000
3FC0
2380
2700
0E00
0E00
1C00
3880
7180
FF80
ENDCHAR
STARTCHAR uni1E92
ENCODING 7826
SWIDTH 684 0
DWIDTH 12 0
BBX 12 16 1 -3
BITMAP
1FF0
10E0
11E0
01C0
0380
0700
0F00
0E00
1C00
3800
7040
70C0
FFC0
0000
0E00
0E00
ENDCHAR
STARTCHAR uni1E93
ENCODING 7827
SWIDTH 567 0
DWIDTH 10 0
BBX 10 12 1 -3
BITMAP
3FC0
2380
2700
0E00
0E00
1C00
3880
7180
FF80
0000
1C00
1C00
ENDCHAR
STARTCHAR uni1E94
ENCODING 7828
SWIDTH 684 0
DWIDTH 12 0
BBX 12 15 1 -2
BITMAP
1FF0
10E0
11E0
01C0
0380
0700
0F00
0E00
1C00
3800
7040
70C0
FFC0
0000
3F00
ENDCHAR
STARTCHAR uni1E95
ENCODING 7829
SWIDTH 567 0
DWIDTH 10 0
BBX 10 11 1 -2
BITMAP
3FC0
2380
2700
0E00
0E00
1C00
3880
7180
FF80
0000
3F00
ENDCHAR
STARTCHAR uni1E96
ENCODING 7830
SWIDTH 656 0
DWIDTH 12 0
BBX 10 15 2 -2
BITMAP
7800
3800
3800
3800
3180
37C0
75C0
79C0
7180
6180
6380
E380
E3C0
0000
3F00
ENDCHAR
STARTCHAR uni1E97
ENCODING 7831
SWIDTH 375 0
DWIDTH 7 0
BBX 6 14 2 0
BITMAP
CC
00
30
30
30
FC
70
60
60
60
E0
E0
E0
70
ENDCHAR
STARTCHAR uni1E98
ENCODING 7832
SWIDTH 822 0
DWIDTH 15 0
BBX 15 13 1 0
BITMAP
0380
0280
0380
0000
E18E
7186
318C
33C8
3FD8
3CF0
38E0
18C0
1080
ENDCHAR
STARTCHAR uni1E99
ENCODING 7833
SWIDTH 586 0
DWIDTH 11 0
BBX 12 16 0 -3
BITMAP
0700
0500
0700
0000
3870
1C30
1C20
0C60
0CC0
0F80
0F00
0600
0400
0800
1000
F000
ENDCHAR
STARTCHAR uni1EA0
ENCODING 7840
SWIDTH 765 0
DWIDTH 14 0
BBX 14 16 0 -3
BITMAP
00C0
00E0
01E0
01E0
0260
0460
0470
0870
1FF0
1030
2038
6038
F07C
0000
0380
0380
ENDCHAR
STARTCHAR uni1EA1
ENCODING 7841
SWIDTH 634 0
DWIDTH 11 0
BBX 11 12 1 -3
BITMAP
07E0
18E0
30C0
61C0
61C0
E3C0
E5C0
F980
73E0
0000
0E00
0E00
ENDCHAR
STARTCHAR uni1EA4
ENCODING 7844
SWIDTH 765 0
DWIDTH 14 0
BBX 14 21 0 0
BITMAP
0070
00C0
0180
0000
0070
00F0
0198
0000
00C0
00E0
01E0
01E0
0260
0460
0470
0870
1FF0
1030
2038
6038
F07C
ENDCHAR
STARTCHAR uni1EA5
ENCODING 7845
SWIDTH 634 0
DWIDTH 11 0
BBX 11 17 1 0
BITMAP
01C0
0300
0600
0000
0380
0780
0CC0
0000
07E0
18E0
30C0
61C0
61C0
E3C0
E5C0
F980
73E0
ENDCHAR
STARTCHAR uni1EA6
ENCODING 7846
SWIDTH 765 0
DWIDTH 14 0
BBX 14 21 0 0
BITMAP
0380
0180
00C0
0000
0070
00F0
0198
0000
00C0
00E0
01E0
01E0
0260
0460
0470
0870
1FF0
1030
2038
6038
F07C
ENDCHAR
STARTCHAR uni1EA7
ENCODING 7847
SWIDTH 634 0
DWIDTH 11 0
BBX 11 17 1 0
BITMAP
0E00
0600
0300
0000
0380
0780
0CC0
0000
07E0
18E0
30C0
61C0
61C0
E3C0
E5C0
F980
73E0
ENDCHAR
STARTCHAR uni1EAA
ENCODING 7850
SWIDTH 765 0
DWIDTH 14 0
BBX 14 20 0 0
BITMAP
01D0
02E0
0000
0070
00F0
0198
0000
00C0
00E0
01E0
01E0
0260
0460
0470
0870
1FF0
1030
2038
6038
F07C
ENDCHAR
STARTCHAR uni1EAB
ENCODING 7851
SWIDTH 634 0
DWIDTH 11 0
BBX 11 16 1 0
BITMAP
0740
0B80
0000
0380
0780
0CC0
0000
07E0
18E0
30C0
61C0
61C0
E3C0
E5C0
F980
73E0
ENDCHAR
STARTCHAR uni1EAC
ENCODING 7852
SWIDTH 765 0
DWIDTH 14 0
BBX 14 20 0 -3
BITMAP
01C0
03C0
0660
0000
00C0
00E0
01E0
01E0
0260
0460
0470
0870
1FF0
1030
2038
6038
F07C
0000
0380
0380
ENDCHAR
STARTCHAR uni1EAD
ENCODING 7853
SWIDTH 634 0
DWIDTH 11 0
BBX 11 16 1 -3
BITMAP
0700
0F00
1980
0000
07E0
18E0
30C0
61C0
61C0
E3C0
E5C0
F980
73E0
0000
0E00
0E00
ENDCHAR
STARTCHAR uni1EAE
ENCODING 7854
SWIDTH 765 0
DWIDTH 14 0
BBX 14 21 0 0
BITMAP
0070
00C0
0180
0000
0210
03E0
01C0
0000
00C0
00E0
01E0
01E0
0260
0460
0470
0870
1FF0
1030
2038
6038
F07C
ENDCHAR
STARTCHAR uni1EAF
ENCODING 7855
SWIDTH 634 0
DWIDTH 11 0
BBX 11 17 1 0
BITMAP
01C0
0300
0600
0000
0840
0F80
0700
0000
07E0
18E0
30C0
61C0
61C0
E3C0
E5C0
F980
73E0
ENDCHAR
STARTCHAR uni1EB0
ENCODING 7856
SWIDTH 765 0
DWIDTH 14 0
BBX 14 21 0 0
BITMAP
0700
0300
0180
0000
0210
03E0
01C0
0000
00C0
00E0
01E0
01E0
0260
0460
0470
0870
1FF0
1030
2038
6038
F07C
ENDCHAR
STARTCHAR uni1EB1
ENCODING 7857
SWIDTH 634 0
DWIDTH 11 0
BBX 11 17 1 0
BITMAP
0E00
0600
0300
0000
0840
0F80
0700
0000
07E0
18E0
30C0
61C0
61C0
E3C0
E5C0
F980
73E0
ENDCHAR
STARTCHAR uni1EB4
ENCODING 7860
SWIDTH 765 0
DWIDTH 14 0
BBX 14 20 0 0
BITMAP
03A0
05C0
0000
0210
03E0
01C0
0000
00C0
00E0
01E0
01E0
0260
0460
0470
0870
1FF0
1030
2038
6038
F07C
ENDCHAR
STARTCHAR uni1EB5
ENCODING 7861
SWIDTH 634 0
DWIDTH 11 0
BBX 11 16 1 0
BITMAP
0E80
1700
0000
0840
0F80
0700
0000
07E0
18E0
30C0
61C0
61C0
E3C0
E5C0
F980
73E0
ENDCHAR
STARTCHAR uni1EB6
ENCODING 7862
SWIDTH 765 0
DWIDTH 14 0
BBX 14 20 0 -3
BITMAP
0210
03E0
01C0
0000
00C0
00E0
01E0
01E0
0260
0460
0470
0870
1FF0
1030
2038
6038
F07C
0000
0380
0380
ENDCHAR
STARTCHAR uni1EB7
ENCODING 7863
SWIDTH 634 0
DWIDTH 11 0
BBX 11 16 1 -3
BITMAP
0840
0F80
0700
0000
07E0
18E0
30C0
61C0
61C0
E3C0
E5C0
F980
73E0
0000
0E00
0E00
ENDCHAR
STARTCHAR uni1EB8
ENCODING 7864
SWIDTH 630 0
DWIDTH 11 0
BBX 12 16 1 -3
BITMAP
3FF0
0C30
1C00
1C00
1C00
1C40
1F80
3880
3800
3800
3840
70C0
FFC0
0000
0E00
0E00
ENDCHAR
STARTCHAR uni1EB9
ENCODING 7865
SWIDTH 548 0
DWIDTH 10 0
BBX 9 12 1 -3
BITMAP
0F00
3380
6380
6300
E700
FC00
E000
E180
7E00
0000
3800
3800
ENDCHAR
STARTCHAR uni1EBC
ENCODING 7868
SWIDTH 630 0
DWIDTH 11 0
BBX 12 16 1 0
BITMAP
0E80
1700
0000
3FF0
0C30
1C00
1C00
1C00
1C40
1F80
3880
3800
3800
3840
70C0
FFC0
ENDCHAR
STARTCHAR uni1EBD
ENCODING 7869
SWIDTH 548 0
DWIDTH 10 0
BBX 9 12 1 0
BITMAP
1D00
2E00
0000
0F00
3380
6380
6300
E700
FC00
E000
E180
7E00
ENDCHAR
STARTCHAR uni1EBE
ENCODING 7870
SWIDTH 630 0
DWIDTH 11 0
BBX 12 21 1 0
BITMAP
00E0
0180
0300
0000
01C0
03C0
0660
0000
3FF0
0C30
1C00
1C00
1C00
1C40
1F80
3880
3800
3800
3840
70C0
FFC0
ENDCHAR
STARTCHAR uni1EBF
ENCODING 7871
SWIDTH 548 0
DWIDTH 10 0
BBX 9 17 1 0
BITMAP
0380
0600
0C00
0000
0700
0F00
1980
0000
0F00
3380
6380
6300
E700
FC00
E000
E180
7E00
ENDCHAR
STARTCHAR uni1EC0
ENCODING 7872
SWIDTH 630 0
DWIDTH 11 0
BBX 12 21 1 0
BITMAP
0E00
0600
0300
0000
01C0
03C0
0660
0000
3FF0
0C30
1C00
1C00
1C00
1C40
1F80
3880
3800
3800
3840
70C0
FFC0
ENDCHAR
STARTCHAR uni1EC1
ENCODING 7873
SWIDTH 548 0
DWIDTH 10 0
BBX 9 17 1 0
BITMAP
1C00
0C00
0600
0000
0700
0F00
1980
0000
0F00
3380
6380
6300
E700
FC00
E000
E180
7E00
ENDCHAR
STARTCHAR uni1EC4
ENCODING 7876
SWIDTH 630 0
DWIDTH 11 0
BBX 12 20 1 0
BITMAP
0740
0B80
0000
01C0
03C0
0660
0000
3FF0
0C30
1C00
1C00
1C00
1C40
1F80
3880
3800
3800
3840
70C0
FFC0
ENDCHAR
STARTCHAR uni1EC5
ENCODING 7877
SWIDTH 548 0
DWIDTH 10 0
BBX 9 16 1 0
BITMAP
0E80
1700
0000
0700
0F00
1980
0000
0F00
3380
6380
6300
E700
FC00
E000
E180
7E00
ENDCHAR
STARTCHAR uni1EC6
ENCODING 7878
SWIDTH 630 0
DWIDTH 11 0
BBX 12 20 1 -3
BITMAP
0700
0F00
1980
0000
3FF0
0C30
1C00
1C00
1C00
1C40
1F80
3880
3800
3800
3840
70C0
FFC0
0000
0E00
0E00
ENDCHAR
STARTCHAR uni1EC7
ENCODING 7879
SWIDTH 548 0
DWIDTH 10 0
BBX 9 16 1 -3
BITMAP
0E00
1E00
3300
0000
0F00
3380
6380
6300
E700
FC00
E000
E180
7E00
0000
3800
3800
ENDCHAR
STARTCHAR uni1ECA
ENCODING 7882
SWIDTH 372 0
DWIDTH 7 0
BBX 8 16 1 -3
BITMAP
3F
0E
1C
1C
1C
1C
18
38
38
38
38
70
FC
00
38
38
ENDCHAR
STARTCHAR uni1ECB
ENCODING 7883
SWIDTH 319 0
DWIDTH 6 0
BBX 5 16 2 -3
BITMAP
38
38
00
00
F0
70
70
70
60
60
E0
E0
F0
00
70
70
ENDCHAR
STARTCHAR uni1ECC
ENCODING 7884
SWIDTH 831 0
DWIDTH 15 0
BBX 14 16 2 -3
BITMAP
03E0
0C30
1818
301C
701C
601C
E018
E038
E038
E070
E060
71C0
1F00
0000
0700
0700
ENDCHAR
STARTCHAR uni1ECD
ENCODING 7885
SWIDTH 599 0
DWIDTH 11 0
BBX 10 12 1 -3
BITMAP
0F80
39C0
71C0
61C0
E1C0
E180
E380
E300
7C00
0000
1C00
1C00
ENDCHAR
STARTCHAR uni1ED0
ENCODING 7888
SWIDTH 831 0
DWIDTH 15 0
BBX 14 21 2 0
BITMAP
00E0
0180
0300
0000
01C0
03C0
0660
0000
03E0
0C30
1818
301C
701C
601C
E018
E038
E038
E070
E060
71C0
1F00
ENDCHAR
STARTCHAR uni1ED1
ENCODING 7889
SWIDTH 599 0
DWIDTH 11 0
BBX 10 17 1 0
BITMAP
01C0
0300
0600
0000
0380
0780
0CC0
0000
0F80
39C0
71C0
61C0
E1C0
E180
E380
E300
7C00
ENDCHAR
STARTCHAR uni1ED2
ENCODING 7890
SWIDTH 831 0
DWIDTH 15 0
BBX 14 21 2 0
BITMAP
0700
0300
0180
0000
01C0
03C0
0660
0000
03E0
0C30
1818
301C
701C
601C
E018
E038
E038
E070
E060
71C0
1F00
ENDCHAR
STARTCHAR uni1ED3
ENCODING 7891
SWIDTH 599 0
DWIDTH 11 0
BBX 10 17 1 0
BITMAP
0E00
0600
0300
0000
0380
0780
0CC0
0000
0F80
39C0
71C0
61C0
E1C0
E180
E380
E300
7C00
ENDCHAR
STARTCHAR uni1ED6
ENCODING 7894
SWIDTH 831 0
DWIDTH 15 0
BBX 14 20 2 0
BITMAP
03A0
05C0
0000
01C0
03C0
0660
0000
03E0
0C30
1818
301C
701C
601C
E018
E038
E038
E070
E060
71C0
1F00
ENDCHAR
STARTCHAR uni1ED7
ENCODING 7895
SWIDTH 599 0
DWIDTH 11 0
BBX 10 16 1 0
BITMAP
0740
0B80
0000
0380
0780
0CC0
0000
0F80
39C0
71C0
61C0
E1C0
E180
E380
E300
7C00
ENDCHAR
STARTCHAR uni1ED8
ENCODING 7896
SWIDTH 831 0
DWIDTH 15 0
BBX 14 20 2 -3
BITMAP
01C0
03C0
0660
0000
03E0
0C30
1818
301C
701C
601C
E018
E038
E038
E070
E060
71C0
1F00
0000
0700
0700
ENDCHAR
STARTCHAR uni1ED9
ENCODING 7897
SWIDTH 599 0
DWIDTH 11 0
BBX 10 16 1 -3
BITMAP
0700
0F00
1980
0000
0F80
39C0
71C0
61C0
E1C0
E180
E380
E300
7C00
0000
1C00
1C00
ENDCHAR
STARTCHAR uni1EDA
ENCODING 7898
SWIDTH 831 0
DWIDTH 15 0
BBX 17 17 2 0
BITMAP
003800
006000
00C000
000000
03E380
0C3380
181900
301F00
701E00
601C00
E01800
E03800
E03800
E07000
E06000
71C000
1F0000
ENDCHAR
STARTCHAR uni1EDB
ENCODING 7899
SWIDTH 599 0
DWIDTH 11 0
BBX 13 13 1 0
BITMAP
00E0
0180
0300
0000
0FB8
39F8
71D0
61F0
E1E0
E180
E380
E300
7C00
ENDCHAR
STARTCHAR uni1EDC
ENCODING 7900
SWIDTH 831 0
DWIDTH 15 0
BBX 17 17 2 0
BITMAP
01C000
00C000
006000
000000
03E380
0C3380
181900
301F00
701E00
601C00
E01800
E03800
E03800
E07000
E06000
71C000
1F0000
ENDCHAR
STARTCHAR uni1EDD
ENCODING 7901
SWIDTH 599 0
DWIDTH 11 0
BBX 13 13 1 0
BITMAP
0700
0300
0180
0000
0FB8
39F8
71D0
61F0
E1E0
E180
E380
E300
7C00
ENDCHAR
STARTCHAR uni1EE0
ENCODING 7904
SWIDTH 831 0
DWIDTH 15 0
BBX 17 16 2 0
BITMAP
00E800
017000
000000
03E380
0C3380
181900
301F00
701E00
601C00
E01800
E03800
E03800
E07000
E06000
71C000
1F0000
ENDCHAR
STARTCHAR uni1EE1
ENCODING 7905
SWIDTH 599 0
DWIDTH 11 0
BBX 13 12 1 0
BITMAP
0740
0B80
0000
0FB8
39F8
71D0
61F0
E1E0
E180
E380
E300
7C00
ENDCHAR
STARTCHAR uni1EE2
ENCODING 7906
SWIDTH 831 0
DWIDTH 15 0
BBX 17 16 2 -3
BITMAP
03E380
0C3380
181900
301F00
701E00
601C00
E01800
E03800
E03800
E07000
E06000
71C000
1F0000
000000
070000
070000
ENDCHAR
STARTCHAR uni1EE3
ENCODING 7907
SWIDTH 599 0
DWIDTH 11 0
BBX 13 12 1 -3
BITMAP
0FB8
39F8
71D0
61F0
E1E0
E180
E380
E300
7C00
0000
1C00
1C00
ENDCHAR
STARTCHAR uni1EE4
ENCODING 7908
SWIDTH 775 0
DWIDTH 14 0
BBX 13 16 3 -3
BITMAP
FC78
7030
7020
7020
7020
6020
E020
E040
E040
E040
E080
7180
3E00
0000
1C00
1C00
ENDCHAR
STARTCHAR uni1EE5
ENCODING 7909
SWIDTH 655 0
DWIDTH 12 0
BBX 10 12 2 -3
BITMAP
F3C0
71C0
7180
6180
6380
E780
EB80
FB00
E3C0
0000
1C00
1C00
ENDCHAR
STARTCHAR uni1EE8
ENCODING 7912
SWIDTH 775 0
DWIDTH 14 0
BBX 16 17 3 0
BITMAP
0070
00C0
0180
0000
FC7F
7037
7022
7026
702C
6020
E020
E040
E040
E040
E080
7180
3E00
ENDCHAR
STARTCHAR uni1EE9
ENCODING 7913
SWIDTH 655 0
DWIDTH 12 0
BBX 13 13 2 0
BITMAP
01C0
0300
0600
0000
F3F8
71F8
7190
61B0
63E0
E780
EB80
FB00
E3C0
ENDCHAR
STARTCHAR uni1EEA
ENCODING 7914
SWIDTH 775 0
DWIDTH 14 0
BBX 16 17 3 0
BITMAP
0700
0300
0180
0000
FC7F
7037
7022
7026
702C
6020
E020
E040
E040
E040
E080
7180
3E00
ENDCHAR
STARTCHAR uni1EEB
ENCODING 7915
SWIDTH 655 0
DWIDTH 12 0
BBX 13 13 2 0
BITMAP
0E00
0600
0300
0000
F3F8
71F8
7190
61B0
63E0
E780
EB80
FB00
E3C0
ENDCHAR
STARTCHAR uni1EEE
ENCODING 7918
SWIDTH 775 0
DWIDTH 14 0
BBX 16 16 3 0
BITMAP
03A0
05C0
0000
FC7F
7037
7022
7026
702C
6020
E020
E040
E040
E040
E080
7180
3E00
ENDCHAR
STARTCHAR uni1EEF
ENCODING 7919
SWIDTH 655 0
DWIDTH 12 0
BBX 13 12 2 0
BITMAP
0740
0B80
0000
F3F8
71F8
7190
61B0
63E0
E780
EB80
FB00
E3C0
ENDCHAR
STARTCHAR uni1EF0
ENCODING 7920
SWIDTH 775 0
DWIDTH 14 0
BBX 16 16 3 -3
BITMAP
FC7F
7037
7022
7026
702C
6020
E020
E040
E040
E040
E080
7180
3E00
0000
0E00
0E00
ENDCHAR
STARTCHAR uni1EF1
ENCODING 7921
SWIDTH 655 0
DWIDTH 12 0
BBX 13 12 2 -3
BITMAP
F3F8
71F8
7190
61B0
63E0
E780
EB80
FB00
E3C0
0000
0E00
0E00
ENDCHAR
STARTCHAR Ygrave
ENCODING 7922
SWIDTH 669 0
DWIDTH 12 0
BBX 12 17 3 0
BITMAP
1C00
0C00
0600
0000
F870
7060
7040
3880
3900
1A00
1E00
1C00
1C00
1C00
1800
3800
7E00
ENDCHAR
STARTCHAR ygrave
ENCODING 7923
SWIDTH 586 0
DWIDTH 11 0
BBX 12 16 0 -3
BITMAP
0E00
0600
0300
0000
3870
1C30
1C20
0C60
0CC0
0F80
0F00
0600
0400
0800
1000
F000
ENDCHAR
STARTCHAR uni1EF4
ENCODING 7924
SWIDTH 669 0
DWIDTH 12 0
BBX 12 16 3 -3
BITMAP
F870
7060
7040
3880
3900
1A00
1E00
1C00
1C00
1C00
1800
3800
7E00
0000
1C00
1C00
ENDCHAR
STARTCHAR uni1EF5
ENCODING 7925
SWIDTH 586 0
DWIDTH 11 0
BBX 12 15 0 -6
BITMAP
3870
1C30
1C20
0C60
0CC0
0F80
0F00
0600
0400
0800
1000
F000
0000
1C00
1C00
ENDCHAR
STARTCHAR uni1EF8
ENCODING 7928
SWIDTH 669 0
DWIDTH 12 0
BBX 12 16 3 0
BITMAP
0E80
1700
0000
F870
7060
7040
3880
3900
1A00
1E00
1C00
1C00
1C00
1800
3800
7E00
ENDCHAR
STARTCHAR uni1EF9
ENCODING 7929
SWIDTH 586 0
DWIDTH 11 0
BBX 12 15 0 -3
BITMAP
0740
0B80
0000
3870
1C30
1C20
0C60
0CC0
0F80
0F00
0600
0400
0800
1000
F000
ENDCHAR
STARTCHAR uni2000
ENCODING 8192
SWIDTH 500 0
DWIDTH 9 0
BBX 1 1 0 0
BITMAP
00
ENDCHAR
STARTCHAR uni2001
ENCODING 8193
SWIDTH 1000 0
DWIDTH 19 0
BBX 1 1 0 0
BITMAP
00
ENDCHAR
STARTCHAR uni2002
ENCODING 8194
SWIDTH 500 0
DWIDTH 9 0
BBX 1 1 0 0
BITMAP
00
ENDCHAR
STARTCHAR uni2003
ENCODING 8195
SWIDTH 1000 0
DWIDTH 19 0
BBX 1 1 0 0
BITMAP
00
ENDCHAR
STARTCHAR uni2004
ENCODING 8196
SWIDTH 333 0
DWIDTH 6 0
BBX 1 1 0 0
BITMAP
00
ENDCHAR
STARTCHAR uni2005
ENCODING 8197
SWIDTH 250 0
DWIDTH 5 0
BBX 1 1 0 0
BITMAP
00
ENDCHAR
STARTCHAR uni2006
ENCODING 8198
SWIDTH 167 0
DWIDTH 3 0
BBX 1 1 0 0
BITMAP
00
ENDCHAR
STARTCHAR uni2007
ENCODING 8199
SWIDTH 623 0
DWIDTH 11 0
BBX 1 1 0 0
BITMAP
00
ENDCHAR
STARTCHAR uni2008
ENCODING 8200
SWIDTH 265 0
DWIDTH 5 0
BBX 1 1 0 0
BITMAP
00
ENDCHAR
STARTCHAR uni2009
ENCODING 8201
SWIDTH 200 0
DWIDTH 4 0
BBX 1 1 0 0
BITMAP
00
ENDCHAR
STARTCHAR uni200A
ENCODING 8202
SWIDTH 100 0
DWIDTH 2 0
BBX 1 1 0 0
BITMAP
00
ENDCHAR
STARTCHAR uni200B
ENCODING 8203
SWIDTH 0 0
DWIDTH 0 0
BBX 1 1 0 0
BITMAP
00
ENDCHAR
STARTCHAR uni2010
ENCODING 8208
SWIDTH 289 0
DWIDTH 5 0
BBX 4 1 2 5
BITMAP
F0
ENDCHAR
STARTCHAR uni2011
ENCODING 8209
SWIDTH 289 0
DWIDTH 5 0
BBX 4 1 2 5
BITMAP
F0
ENDCHAR
STARTCHAR figuredash
ENCODING 8210
SWIDTH 500 0
DWIDTH 9 0
BBX 8 1 2 5
BITMAP
FF
ENDCHAR
STARTCHAR endash
ENCODING 8211
SWIDTH 500 0
DWIDTH 9 0
BBX 8 1 2 5
BITMAP
FF
ENDCHAR
STARTCHAR emdash
ENCODING 8212
SWIDTH 1000 0
DWIDTH 18 0
BBX 17 1 2 5
BITMAP
FFFF80
ENDCHAR
STARTCHAR afii00208
ENCODING 8213
SWIDTH 1000 0
DWIDTH 18 0
BBX 17 1 2 5
BITMAP
FFFF80
ENDCHAR
STARTCHAR quoteleft
ENCODING 8216
SWIDTH 265 0
DWIDTH 5 0
BBX 4 5 3 8
BITMAP
30
60
40
E0
E0
ENDCHAR
STARTCHAR quoteright
ENCODING 8217
SWIDTH 265 0
DWIDTH 5 0
BBX 4 5 3 8
BITMAP
70
70
20
60
C0
ENDCHAR
STARTCHAR quotesinglbase
ENCODING 8218
SWIDTH 265 0
DWIDTH 5 0
BBX 4 6 0 -3
BITMAP
70
70
70
20
60
C0
ENDCHAR
STARTCHAR quotereversed
ENCODING 8219
SWIDTH 265 0
DWIDTH 5 0
BBX 4 5 3 8
BITMAP
E0
E0
40
60
30
ENDCHAR
STARTCHAR quotedblleft
ENCODING 8220
SWIDTH 464 0
DWIDTH 8 0
BBX 8 5 2 8
BITMAP
33
66
44
EE
EE
ENDCHAR
STARTCHAR quotedblright
ENCODING 8221
SWIDTH 464 0
DWIDTH 8 0
BBX 8 5 2 8
BITMAP
77
77
22
66
CC
ENDCHAR
STARTCHAR quotedblbase
ENCODING 8222
SWIDTH 464 0
DWIDTH 8 0
BBX 8 5 0 -3
BITMAP
77
77
22
66
CC
ENDCHAR
STARTCHAR uni201F
ENCODING 8223
SWIDTH 464 0
DWIDTH 8 0
BBX 8 5 2 8
BITMAP
EE
EE
44
66
33
ENDCHAR
STARTCHAR dagger
ENCODING 8224
SWIDTH 636 0
DWIDTH 11 0
BBX 9 16 3 -3
BITMAP
0E00
0E00
0C00
0C00
0C00
3E00
D980
1800
1800
1800
3800
3800
3000
3000
3000
7000
ENDCHAR
STARTCHAR daggerdbl
ENCODING 8225
SWIDTH 636 0
DWIDTH 11 0
BBX 10 16 2 -3
BITMAP
0700
0700
0600
0600
0600
1F00
6CC0
0C00
0C00
0C00
3E00
D980
1800
1800
1800
3800
ENDCHAR
STARTCHAR bullet
ENCODING 8226
SWIDTH 636 0
DWIDTH 11 0
BBX 6 6 4 2
BITMAP
78
FC
FC
FC
FC
78
ENDCHAR
STARTCHAR ellipsis
ENCODING 8230
SWIDTH 1000 0
DWIDTH 18 0
BBX 14 2 2 0
BITMAP
C30C
C30C
ENDCHAR
STARTCHAR perthousand
ENCODING 8240
SWIDTH 1156 0
DWIDTH 21 0
BBX 22 13 1 0
BITMAP
3C0C00
661800
E63000
C66000
CCC000
798000
037878
06CCCC
0D8D8C
198D8C
318D98
619998
C0F0F0
ENDCHAR
STARTCHAR guilsinglleft
ENCODING 8249
SWIDTH 310 0
DWIDTH 6 0
BBX 5 9 2 0
BITMAP
08
18
30
60
C0
60
60
20
30
ENDCHAR
STARTCHAR guilsinglright
ENCODING 8250
SWIDTH 310 0
DWIDTH 6 0
BBX 5 9 1 0
BITMAP
60
20
30
30
18
30
60
C0
80
ENDCHAR
STARTCHAR fraction
ENCODING 8260
SWIDTH 55 0
DWIDTH 1 0
BBX 14 13 -4 0
BITMAP
000C
0010
0030
0060
00C0
0180
0300
0600
0C00
1800
3000
6000
C000
ENDCHAR
STARTCHAR oneinferior
ENCODING 8321
SWIDTH 381 0
DWIDTH 7 0
BBX 4 9 -11 -4
BITMAP
70
30
30
20
20
20
20
60
F0
ENDCHAR
STARTCHAR twoinferior
ENCODING 8322
SWIDTH 381 0
DWIDTH 7 0
BBX 6 9 -10 -4
BITMAP
38
4C
0C
0C
18
20
40
C0
F8
ENDCHAR
STARTCHAR threeinferior
ENCODING 8323
SWIDTH 381 0
DWIDTH 7 0
BBX 6 9 -10 -4
BITMAP
38
4C
0C
08
78
08
08
98
F0
ENDCHAR
STARTCHAR uni20A5
ENCODING 8357
SWIDTH 969 0
DWIDTH 17 0
BBX 16 16 2 -3
BITMAP
000C
0008
0010
0030
F9EE
37DF
75F7
79E7
71C6
6386
638E
E78E
EF8F
0800
1000
3000
ENDCHAR
STARTCHAR uni20A6
ENCODING 8358
SWIDTH 797 0
DWIDTH 14 0
BBX 16 13 0 0
BITMAP
3C0F
0E06
0E04
1F04
1FFC
1388
11C8
1FF8
30E8
20F8
2070
6030
F030
ENDCHAR
STARTCHAR uni20A9
ENCODING 8361
SWIDTH 922 0
DWIDTH 17 0
BBX 17 13 2 0
BITMAP
F8C380
70C100
71C200
71C200
7FFC00
72C400
74C800
7FF800
78D000
38F000
30E000
30C000
20C000
ENDCHAR
STARTCHAR Euro
ENCODING 8364
SWIDTH 740 0
DWIDTH 13 0
BBX 15 13 0 0
BITMAP
00FE
0306
0606
0C04
7FE0
1800
3800
FFC0
3800
3800
1C00
1E18
07E0
ENDCHAR
STARTCHAR uni20AD
ENCODING 8365
SWIDTH 746 0
DWIDTH 13 0
BBX 14 13 1 0
BITMAP
3F3C
0E10
0C20
1C40
1D80
1A00
FFFC
1B80
3BC0
39C0
30E0
70F0
F9F8
ENDCHAR
STARTCHAR uni2103
ENCODING 8451
SWIDTH 986 0
DWIDTH 18 0
BBX 16 13 4 0
BITMAP
E07F
A183
E303
0602
0E00
0C00
1C00
1C00
1C00
1C00
0E00
0F0C
03F0
ENDCHAR
STARTCHAR uni2109
ENCODING 8457
SWIDTH 848 0
DWIDTH 16 0
BBX 14 13 4 0
BITMAP
EFFC
A30C
E70C
0700
0700
0710
07E0
0E20
0E00
0E00
0E00
1C00
3F00
ENDCHAR
STARTCHAR trademark
ENCODING 8482
SWIDTH 1044 0
DWIDTH 19 0
BBX 18 7 3 6
BITMAP
FF71C0
9A7380
187780
305F00
305B00
305B00
79C380
ENDCHAR
STARTCHAR uni212A
ENCODING 8490
SWIDTH 746 0
DWIDTH 13 0
BBX 14 13 1 0
BITMAP
3F3C
0E10
0C20
1C40
1D80
1A00
1F00
1B80
3BC0
39C0
30E0
70F0
F9F8
ENDCHAR
STARTCHAR uni212B
ENCODING 8491
SWIDTH 765 0
DWIDTH 14 0
BBX 14 17 0 0
BITMAP
0070
0050
0070
0000
00C0
00E0
01E0
01E0
0260
0460
0470
0870
1FF0
1030
2038
6038
F07C
ENDCHAR
STARTCHAR uni2132
ENCODING 8498
SWIDTH 602 0
DWIDTH 11 0
BBX 12 13 1 0
BITMAP
03F0
00E0
01C0
01C0
01C0
11C0
1F80
2380
0380
0380
C380
C300
FFC0
ENDCHAR
STARTCHAR minus
ENCODING 8722
SWIDTH 636 0
DWIDTH 11 0
BBX 11 1 1 5
BITMAP
FFE0
ENDCHAR
STARTCHAR fraction
ENCODING 8725
SWIDTH 55 0
DWIDTH 1 0
BBX 14 13 -4 0
BITMAP
000C
0010
0030
0060
00C0
0180
0300
0600
0C00
1800
3000
6000
C000
ENDCHAR
STARTCHAR periodcentered
ENCODING 8729
SWIDTH 636 0
DWIDTH 11 0
BBX 3 2 5 4
BITMAP
E0
E0
ENDCHAR
STARTCHAR uni2236
ENCODING 8758
SWIDTH 265 0
DWIDTH 5 0
BBX 5 9 1 0
BITMAP
38
38
38
00
00
00
E0
E0
E0
ENDCHAR
STARTCHAR uni2259
ENCODING 8793
SWIDTH 636 0
DWIDTH 11 0
BBX 11 8 1 3
BITMAP
0700
0F00
1980
0000
7FE0
0000
0000
FFC0
ENDCHAR
STARTCHAR uni225A
ENCODING 8794
SWIDTH 636 0
DWIDTH 11 0
BBX 11 8 1 3
BITMAP
1180
0B00
0E00
0000
7FE0
0000
0000
FFC0
ENDCHAR
STARTCHAR notequal
ENCODING 8800
SWIDTH 636 0
DWIDTH 11 0
BBX 12 16 1 -3
BITMAP
0030
0020
0040
00C0
0080
0100
7FE0
0200
0400
FFC0
0800
1000
3000
2000
4000
C000
ENDCHAR
STARTCHAR equivalence
ENCODING 8801
SWIDTH 636 0
DWIDTH 11 0
BBX 11 5 0 3
BITMAP
FFE0
0000
FFE0
0000
FFE0
ENDCHAR
STARTCHAR uni2262
ENCODING 8802
SWIDTH 636 0
DWIDTH 11 0
BBX 12 16 0 -2
BITMAP
0030
0020
0040
00C0
0080
0100
FFE0
0200
FFE0
0C00
FFE0
1000
3000
2000
4000
C000
ENDCHAR
STARTCHAR lessequal
ENCODING 8804
SWIDTH 636 0
DWIDTH 11 0
BBX 11 13 2 -2
BITMAP
0020
00E0
0380
0E00
3800
E000
3000
1C00
0700
0180
0080
0000
FFE0
ENDCHAR
STARTCHAR greaterequal
ENCODING 8805
SWIDTH 636 0
DWIDTH 11 0
BBX 11 13 1 -2
BITMAP
2000
3000
1C00
0700
0180
00E0
0380
0E00
3800
E000
8000
0000
FFE0
ENDCHAR
STARTCHAR uni226E
ENCODING 8814
SWIDTH 636 0
DWIDTH 11 0
BBX 12 16 2 -2
BITMAP
0030
0020
0040
00E0
00E0
0380
0F00
3A00
E400
3C00
1C00
1700
3180
2080
4000
C000
ENDCHAR
STARTCHAR uni226F
ENCODING 8815
SWIDTH 636 0
DWIDTH 11 0
BBX 12 16 1 -2
BITMAP
0030
0020
0040
20C0
3080
1D00
0700
0380
04E0
0F80
0E00
3800
F000
A000
4000
C000
ENDCHAR
STARTCHAR uni2270
ENCODING 8816
SWIDTH 636 0
DWIDTH 11 0
BBX 12 16 2 -3
BITMAP
0030
0020
0060
00E0
0380
0F00
3B00
E200
3400
1C00
0F00
1180
3080
2000
FFE0
C000
ENDCHAR
STARTCHAR uni2271
ENCODING 8817
SWIDTH 636 0
DWIDTH 11 0
BBX 12 16 1 -3
BITMAP
0030
0020
2040
30C0
1C80
0700
0380
02E0
0780
0E00
3800
F000
B000
2000
FFE0
C000
ENDCHAR
STARTCHAR fi
ENCODING -1
SWIDTH 662 0
DWIDTH 12 0
BBX 12 17 1 -3
BITMAP
0780
0DB0
0D70
1800
1800
7FE0
38E0
38E0
30C0
30C0
71C0
71C0
71C0
61E0
6000
E000
E000
ENDCHAR
STARTCHAR fl
ENCODING -1
SWIDTH 668 0
DWIDTH 12 0
BBX 12 17 1 -3
BITMAP
03F0
0C70
0C70
1860
1860
7EE0
38E0
38E0
30C0
30C0
71C0
71C0
71C0
61E0
6000
E000
E000
ENDCHAR
ENDFONT
